<?xml version="1.0" standalone="no"?>
<!DOCTYPE svg PUBLIC "-//W3C//DTD SVG 20010904//EN"
 "http://www.w3.org/TR/2001/REC-SVG-20010904/DTD/svg10.dtd">
<svg version="1.0" xmlns="http://www.w3.org/2000/svg"
 width="1024.000000pt" height="1024.000000pt" viewBox="0 0 1024.000000 1024.000000"
 preserveAspectRatio="xMidYMid meet">

<g transform="translate(0.000000,1024.000000) scale(0.100000,-0.100000)"
fill="#000000" stroke="none">
<path d="M0 5120 l0 -5120 5120 0 5120 0 0 5120 0 5120 -5120 0 -5120 0 0
-5120z m9720 4850 c0 -5 -2 -10 -4 -10 -3 0 -8 5 -11 10 -3 6 -1 10 4 10 6 0
11 -4 11 -10z m-4546 -96 l26 -27 0 -322 0 -322 -24 -22 c-13 -12 -39 -24 -59
-28 -31 -5 -40 -1 -67 25 l-30 30 0 322 0 321 25 24 c34 35 93 34 129 -1z
m-636 -254 c25 -30 103 -501 88 -533 -15 -29 -57 -34 -73 -8 -7 10 -31 132
-54 271 -39 241 -40 252 -24 271 23 24 41 24 63 -1z m1203 1 l23 -18 -18 -114
c-47 -299 -67 -401 -80 -414 -21 -22 -54 -18 -70 8 -12 19 -11 41 15 187 16
91 33 194 39 230 15 94 18 107 36 124 20 20 27 20 55 -3z m-1487 -23 c8 -13
22 -63 31 -113 10 -49 30 -154 46 -233 39 -193 37 -232 -11 -232 -30 0 -50 36
-65 116 -7 43 -28 144 -45 224 -45 207 -47 228 -24 245 28 21 52 18 68 -7z
m1765 12 c10 -5 22 -17 25 -27 8 -20 -79 -495 -98 -533 -8 -18 -20 -25 -41
-25 -55 0 -55 26 3 312 55 279 64 299 111 273z m-2196 -152 c22 -29 136 -426
137 -475 0 -23 -8 -38 -31 -57 -65 -55 -128 -23 -159 82 -123 417 -122 411
-95 450 18 25 69 41 104 32 14 -3 33 -18 44 -32z m2712 7 c16 -15 25 -35 25
-56 0 -32 -113 -437 -131 -471 -14 -27 -75 -42 -109 -28 -32 13 -60 50 -60 77
1 10 29 117 64 237 44 153 70 227 86 243 31 32 92 32 125 -2z m-5280 -49 c18
-27 11 -52 -17 -67 -39 -21 -78 47 -46 79 19 19 46 14 63 -12z m5848 -274 c32
-28 20 -69 -78 -256 -90 -171 -129 -226 -159 -226 -7 0 -25 12 -41 26 -21 20
-26 31 -22 53 8 40 187 378 215 406 25 25 53 24 85 -3z m-3891 1 c9 -10 43
-72 75 -138 33 -66 76 -150 96 -187 21 -36 37 -78 37 -92 0 -32 -36 -66 -71
-66 -33 0 -54 31 -168 254 -82 162 -94 202 -65 230 21 21 77 20 96 -1z m1722
-205 c-9 -18 -39 -68 -67 -110 -49 -75 -52 -78 -96 -83 -25 -3 -117 -18 -204
-32 l-157 -26 -117 78 c-136 91 -142 80 64 126 185 41 415 74 546 78 l48 1
-17 -32z m615 6 c124 -17 105 -13 313 -60 92 -21 165 -41 163 -45 -3 -4 -56
-41 -118 -83 -108 -72 -115 -75 -148 -66 -33 10 -214 42 -310 54 -44 6 -47 10
-96 84 -28 42 -58 92 -68 111 l-17 34 89 -8 c48 -4 135 -13 192 -21z m-2805
-74 c15 -5 42 -34 62 -67 62 -99 79 -126 128 -201 26 -40 51 -84 56 -98 20
-51 -33 -104 -80 -81 -36 18 -260 356 -260 392 0 24 34 65 55 65 7 0 25 -4 39
-10z m2521 -209 l147 -218 97 -42 c54 -22 101 -41 106 -41 5 0 43 22 84 49 42
26 136 86 209 132 73 46 149 94 168 106 31 21 34 21 34 4 0 -10 -11 -63 -25
-117 -125 -507 -156 -631 -160 -642 -4 -9 -21 0 -57 30 -162 135 -382 238
-583 273 -129 23 -233 20 -375 -9 -216 -44 -371 -121 -567 -282 l-33 -26 -9
25 c-16 42 -202 760 -198 763 1 2 95 -56 207 -127 113 -72 224 -142 248 -156
l42 -25 43 19 c23 11 70 30 104 42 l62 23 109 162 c179 264 187 275 194 276 3
0 72 -98 153 -219z m2276 201 c38 -32 29 -68 -43 -178 -35 -54 -79 -124 -98
-154 -50 -81 -79 -110 -113 -110 -32 0 -66 33 -67 64 0 23 202 341 237 374 29
27 53 28 84 4z m-3621 -129 c0 -5 11 -48 25 -96 22 -81 23 -88 7 -94 -9 -3
-86 -33 -171 -66 -443 -173 -866 -451 -1206 -794 l-122 -122 -67 74 c-36 40
-66 77 -66 82 0 23 373 356 539 482 270 204 654 411 949 511 91 31 112 35 112
23z m2526 -33 c146 -50 479 -213 633 -310 148 -93 300 -202 430 -308 128 -105
393 -352 389 -363 -6 -16 -123 -148 -132 -148 -5 -1 -75 63 -155 142 -362 355
-787 629 -1226 793 -71 26 -131 49 -133 49 -1 1 7 43 19 93 17 73 25 92 39 92
10 0 71 -18 136 -40z m-4015 -302 c63 -68 131 -141 152 -162 20 -22 37 -49 37
-60 0 -25 -28 -56 -51 -56 -9 0 -76 62 -147 138 -153 162 -172 184 -172 208 0
23 29 54 50 54 9 0 68 -55 131 -122z m5519 102 c35 -35 25 -57 -72 -158 -51
-54 -114 -120 -141 -148 -26 -28 -58 -57 -72 -64 -22 -12 -27 -11 -45 5 -11
10 -20 27 -20 37 0 29 7 37 248 291 30 31 60 57 68 57 8 0 23 -9 34 -20z
m-5711 -321 c133 -138 156 -166 156 -192 0 -24 -7 -35 -27 -47 l-28 -15 -150
150 c-82 83 -157 164 -167 182 -17 32 -17 33 7 58 13 14 30 25 38 25 8 0 85
-73 171 -161z m5939 141 c25 -24 28 -56 6 -85 -40 -54 -300 -305 -315 -305
-10 0 -27 12 -38 26 -19 24 -19 28 -6 53 18 32 307 331 321 331 6 0 20 -9 32
-20z m-1858 -58 c0 -4 -6 -14 -12 -22 -11 -12 -10 -12 4 -1 17 12 82 7 103 -9
6 -4 21 -11 35 -15 57 -17 171 -76 165 -85 -3 -6 0 -7 9 -4 9 3 38 -8 66 -25
27 -17 50 -28 50 -24 0 3 3 4 6 1 7 -8 -24 -68 -35 -68 -4 0 -8 -6 -8 -13 0
-21 -104 -168 -114 -161 -5 3 -6 -3 -2 -12 4 -12 3 -15 -5 -10 -8 5 -10 2 -5
-9 3 -10 1 -20 -4 -24 -6 -3 -25 -30 -43 -59 -17 -28 -36 -50 -40 -47 -5 3
-12 0 -16 -6 -4 -8 -3 -9 4 -5 19 11 14 -9 -5 -26 -23 -19 -99 -49 -115 -44
-7 1 -9 1 -4 -2 5 -3 -35 -28 -90 -56 -80 -41 -99 -55 -100 -74 -1 -12 1 -21
3 -18 5 5 48 -32 139 -119 l52 -50 -54 -89 c-29 -48 -57 -93 -62 -99 -4 -7 -9
-28 -11 -47 -2 -31 -83 -180 -98 -180 -3 0 -18 9 -33 20 l-29 21 22 37 c11 20
25 40 30 43 5 3 9 10 9 15 1 17 21 54 30 54 4 0 8 6 8 13 0 7 9 32 20 55 26
54 25 84 -4 111 -20 19 -32 22 -58 17 -31 -6 -38 -15 -100 -134 -36 -70 -72
-128 -79 -129 -8 -2 -23 4 -33 12 -19 15 -19 16 2 67 30 74 79 226 87 270 4
23 11 35 18 31 5 -3 7 -1 3 5 -9 15 26 122 38 115 5 -4 7 1 2 12 -4 10 4 51
18 94 13 42 56 173 94 291 38 118 82 254 97 303 15 48 32 87 36 87 5 0 9 -4 9
-8z m-2400 -21 c0 -11 4 -23 10 -26 5 -3 19 -38 30 -78 12 -40 33 -108 49
-152 49 -140 102 -298 126 -375 37 -118 163 -481 180 -517 9 -18 13 -38 9 -45
-4 -7 -3 -8 4 -4 7 4 12 1 12 -9 0 -13 -53 -45 -74 -45 -11 0 -116 232 -110
242 4 6 3 8 -3 5 -5 -3 -26 -2 -46 3 -30 6 -42 4 -62 -12 -29 -22 -31 -47 -10
-88 8 -16 14 -33 13 -37 -3 -9 62 -146 72 -153 4 -3 12 -15 19 -28 11 -20 9
-25 -11 -42 -13 -11 -28 -19 -34 -20 -6 0 -35 36 -64 80 -43 66 -50 83 -40 95
12 14 11 29 -6 69 -5 15 -4 17 6 11 9 -5 11 -4 6 4 -4 6 -11 9 -16 6 -5 -3
-25 18 -44 46 -28 43 -33 56 -25 73 10 20 9 20 -5 3 -14 -18 -15 -18 -27 5 -6
13 -16 26 -22 29 -12 8 1 31 14 24 5 -4 9 0 9 8 0 19 44 59 55 50 4 -5 5 -3 2
3 -8 14 68 88 82 80 6 -4 17 -3 25 1 12 6 8 15 -19 45 -18 20 -36 34 -39 31
-3 -3 -34 7 -68 23 -143 66 -154 75 -208 157 -28 43 -48 82 -45 88 3 5 1 17
-5 26 -9 16 -10 15 -5 -4 10 -37 -1 -26 -40 37 -20 33 -33 65 -29 71 4 7 3 9
-4 5 -11 -6 -54 49 -86 112 -17 32 -17 34 1 48 10 8 26 12 36 10 9 -2 15 -1
12 3 -2 5 6 13 18 18 12 6 51 24 87 41 97 46 233 100 253 101 10 1 17 -6 17
-18z m5665 -111 c16 -18 17 -23 5 -45 -23 -42 -80 -28 -80 20 0 45 44 59 75
25z m-7988 -53 c20 -11 346 -301 431 -383 40 -40 42 -80 7 -122 -31 -37 -74
-48 -109 -30 -30 16 -431 373 -452 402 -52 75 43 178 123 133z m7136 -27 c45
-50 38 -83 -35 -154 -135 -132 -394 -357 -416 -363 -57 -14 -133 62 -119 119
6 22 410 396 461 426 31 18 77 6 109 -28z m-3438 -27 c109 -24 243 -93 319
-164 116 -108 166 -219 166 -367 0 -96 -13 -148 -65 -258 -36 -74 -59 -105
-127 -175 -116 -116 -224 -168 -389 -188 -101 -12 -301 7 -315 30 -3 5 -9 7
-14 4 -5 -3 -36 8 -68 24 -253 127 -412 446 -347 696 59 223 293 393 574 413
116 9 174 6 266 -15z m1715 -143 c-9 -16 -8 -18 5 -14 8 4 15 11 15 16 0 6 6
5 15 -2 8 -7 12 -17 9 -22 -3 -5 0 -8 8 -6 17 4 70 -37 60 -46 -3 -4 0 -4 9
-1 9 3 26 -6 42 -23 l28 -29 -48 -58 c-26 -32 -69 -80 -94 -107 l-47 -49 -68
34 c-73 37 -114 70 -113 90 0 7 7 2 16 -10 8 -13 20 -23 25 -23 5 0 2 7 -6 16
-9 8 -16 22 -16 29 0 10 -6 12 -17 8 -10 -4 9 23 41 60 44 51 62 65 69 55 6
-9 7 -8 3 4 -3 11 8 32 31 58 40 44 49 50 33 20z m-3743 -57 c34 -38 90 -99
126 -138 58 -63 64 -72 55 -95 -22 -57 -62 -81 -164 -94 l-41 -5 -79 91 c-135
155 -145 169 -133 184 6 7 18 10 26 7 11 -4 14 -2 9 5 -6 11 48 68 56 60 2 -2
17 9 33 25 16 15 35 27 41 27 6 0 38 -30 71 -67z m3443 -206 c35 -90 72 -134
143 -168 34 -16 68 -29 75 -29 26 0 10 -17 -41 -42 -29 -14 -67 -38 -85 -53
-33 -28 -88 -126 -112 -199 l-13 -40 -18 60 c-10 32 -33 83 -51 113 -28 45
-45 61 -108 95 -41 23 -83 40 -92 38 -10 -2 -18 1 -18 6 0 16 33 38 93 62 72
28 114 75 158 177 26 57 35 70 40 56 4 -10 17 -44 29 -76z m-3032 -119 c14
-15 47 -35 74 -44 26 -8 48 -20 48 -25 0 -5 -27 -22 -60 -39 -32 -16 -64 -39
-70 -51 -7 -11 -14 -18 -17 -15 -4 3 -12 1 -19 -5 -8 -7 -14 -6 -20 2 -4 8 -3
9 4 5 8 -5 10 -2 6 9 -6 14 -8 14 -19 -1 -11 -15 -13 -14 -17 9 -4 20 -1 27
10 27 8 0 13 3 9 6 -3 3 -15 3 -27 -1 -18 -6 -19 -9 -9 -23 11 -14 11 -15 -1
-5 -17 16 -22 43 -7 43 6 0 1 10 -11 22 -19 19 -25 21 -42 10 -33 -20 -13 13
24 42 19 14 43 48 57 80 l24 54 19 -36 c10 -20 30 -49 44 -64z m3728 77 c-3
-8 -1 -16 4 -16 6 -1 14 -2 19 -3 5 0 32 -23 60 -49 40 -38 49 -52 42 -65 -8
-16 -170 -178 -364 -366 -43 -42 -83 -73 -89 -70 -7 4 -8 2 -4 -4 4 -6 -28
-44 -76 -89 -45 -43 -168 -160 -272 -260 -105 -101 -192 -183 -196 -183 -3 0
-13 12 -23 26 -16 21 -17 30 -6 62 15 47 38 74 57 67 12 -4 13 -3 3 9 -11 13
-9 15 8 11 13 -2 18 1 15 9 -2 6 7 22 21 34 27 24 40 29 29 10 -4 -7 -3 -8 5
-4 6 4 9 12 5 17 -3 5 10 28 30 49 33 36 41 40 37 17 -1 -5 10 0 23 10 14 10
26 22 26 27 0 5 -7 3 -15 -4 -10 -8 -15 -9 -15 -1 0 18 60 69 89 76 15 3 42
19 60 36 33 30 34 30 29 107 -3 42 -2 68 3 57 5 -13 8 -15 8 -5 1 9 -6 25 -14
37 -14 20 -12 23 31 62 40 35 49 39 63 29 14 -11 14 -11 3 4 -14 17 -1 35 18
23 6 -4 7 1 3 12 -3 10 -3 15 2 11 4 -4 16 2 26 13 10 12 23 18 30 13 7 -4 9
-3 6 3 -4 6 0 16 8 23 8 7 15 10 15 7 0 -4 21 16 47 44 32 34 51 48 64 44 9
-3 20 -1 24 4 4 7 -1 8 -12 5 -10 -4 16 27 57 68 59 59 78 72 89 64 11 -8 13
-8 9 4 -2 8 0 20 6 27 15 17 19 16 12 -2z m-4580 -7 c5 -8 2 -9 -10 -5 -11 4
-15 3 -11 -4 4 -6 14 -8 22 -5 21 8 87 -55 70 -67 -8 -6 -7 -7 5 -4 11 4 47
-24 112 -84 52 -50 116 -108 140 -131 25 -22 43 -45 39 -51 -3 -6 -1 -7 5 -3
6 4 37 -18 71 -51 l59 -58 -15 -60 c-14 -54 -14 -62 1 -90 20 -37 80 -79 101
-71 8 3 15 1 15 -4 0 -5 7 -7 15 -4 8 4 15 1 15 -4 0 -6 -10 -9 -22 -7 -18 4
-14 -2 18 -33 21 -20 39 -41 39 -46 0 -5 8 -14 18 -20 24 -14 207 -199 220
-221 7 -13 4 -25 -10 -44 -11 -14 -25 -26 -31 -26 -6 0 -107 92 -224 205 -117
112 -253 243 -303 290 -49 47 -179 173 -288 280 -155 153 -197 199 -191 213 4
11 13 16 22 12 9 -3 13 -3 9 1 -7 8 80 104 95 104 4 0 10 -5 14 -12z m-1356
-23 c26 -32 -13 -81 -47 -59 -35 22 -23 74 17 74 10 0 23 -7 30 -15z m7330 0
c20 -24 -3 -67 -33 -63 -29 4 -36 47 -11 65 23 17 29 16 44 -2z m-5670 -886
c492 -490 879 -880 860 -867 -19 14 -83 53 -142 86 -231 132 -380 246 -883
674 -113 96 -849 832 -844 844 9 21 102 154 108 154 3 0 409 -401 901 -891z
m4919 810 c52 -79 53 -81 35 -102 -52 -62 -769 -767 -829 -815 -38 -31 -72
-59 -75 -63 -8 -10 -120 -102 -320 -262 -174 -139 -386 -288 -580 -407 l-85
-52 220 224 c277 281 388 391 925 917 239 234 481 474 539 534 57 59 107 107
110 107 3 0 30 -36 60 -81z m-6440 -21 c20 -12 38 -25 41 -28 3 -4 31 -25 62
-48 31 -23 60 -46 63 -52 8 -13 -12 -40 -30 -40 -17 0 -195 129 -202 146 -7
19 3 44 18 44 6 0 28 -10 48 -22z m2431 12 c0 -5 -5 -10 -11 -10 -5 0 -7 5 -4
10 3 6 8 10 11 10 2 0 4 -4 4 -10z m4634 -38 c-15 -24 -186 -142 -206 -142
-22 0 -34 39 -17 55 21 19 173 121 189 127 24 9 47 -19 34 -40z m-7284 -104
c41 -28 116 -76 165 -107 101 -62 114 -75 115 -111 1 -70 -58 -67 -175 9 -49
32 -122 79 -162 104 -87 55 -110 85 -92 119 28 53 57 50 149 -14z m7572 35
c39 -35 14 -94 -55 -129 -18 -9 -82 -49 -143 -89 -142 -93 -151 -98 -178 -91
-31 8 -49 49 -35 79 6 12 49 47 97 77 48 30 125 80 172 112 90 61 112 68 142
41z m-5602 -53 c0 -5 6 -7 14 -4 21 8 104 -44 121 -76 13 -26 12 -29 -15 -55
l-28 -27 -13 23 c-6 13 -18 28 -26 32 -12 7 -12 11 -1 25 11 13 11 15 -4 9
-13 -4 -25 3 -41 26 -37 49 -40 57 -23 57 9 0 16 -4 16 -10z m-1401 -207 c36
-31 68 -58 70 -59 1 -2 -24 -47 -57 -102 -278 -457 -462 -1025 -513 -1582 -15
-163 -6 -628 15 -770 82 -556 246 -1018 516 -1450 161 -259 377 -512 640 -755
432 -397 965 -694 1543 -860 143 -41 342 -85 450 -101 43 -6 48 -9 43 -28 -3
-11 -6 -56 -6 -100 l0 -78 -57 6 c-105 13 -356 66 -483 102 -417 121 -881 343
-1223 588 -280 200 -622 515 -809 746 -257 318 -455 662 -594 1034 -113 301
-188 605 -225 908 -28 227 -30 630 -5 851 29 258 56 390 132 660 72 252 145
438 264 672 57 111 216 375 227 375 3 0 36 -26 72 -57z m6438 -30 c129 -201
305 -576 382 -818 134 -418 189 -739 196 -1140 5 -307 -11 -498 -67 -780 -72
-366 -182 -688 -350 -1017 -260 -512 -637 -953 -1158 -1354 -172 -133 -402
-272 -635 -385 -401 -193 -766 -306 -1181 -363 l-42 -6 -6 43 c-4 23 -18 66
-31 96 -14 30 -24 55 -23 56 2 2 44 8 93 14 225 29 610 134 855 233 161 65
427 198 562 280 469 288 905 705 1197 1147 356 538 555 1171 586 1856 15 336
-44 778 -155 1161 -74 254 -223 595 -358 817 -40 65 -72 121 -72 126 0 7 138
121 147 121 2 0 29 -39 60 -87z m-1788 -34 c35 -35 39 -44 29 -57 -49 -61
-261 -298 -270 -301 -11 -4 -78 58 -78 72 0 6 17 31 37 56 44 55 234 271 238
271 1 0 21 -19 44 -41z m-2883 -31 c63 -66 214 -245 214 -254 0 -3 -18 -22
-40 -43 l-41 -39 -97 112 c-54 61 -119 138 -145 170 l-48 59 33 28 c18 16 40
28 49 29 9 0 43 -28 75 -62z m-1417 -128 c34 -30 69 -68 77 -83 15 -27 15 -28
-13 -21 -23 4 -25 3 -13 -6 12 -9 9 -10 -15 -5 -16 4 -27 3 -23 -1 4 -4 4 -12
-1 -18 -6 -7 -4 -26 4 -50 8 -22 11 -44 8 -49 -3 -6 -1 -7 5 -3 18 11 15 -20
-4 -38 -18 -19 -4 -22 15 -3 11 10 13 8 9 -9 -3 -13 1 -25 12 -32 16 -10 60
-107 60 -132 0 -6 -24 3 -52 19 -29 15 -111 59 -183 96 -71 37 -134 70 -138
75 -13 12 26 85 45 82 16 -2 32 23 23 37 -2 5 11 37 31 72 19 35 32 54 29 42
-9 -34 1 -28 14 7 8 24 7 29 -2 23 -7 -4 -1 7 13 24 14 18 28 31 31 30 3 -1
34 -27 68 -57z m5711 -11 c60 -91 91 -149 85 -160 -4 -5 1 -9 9 -9 9 0 25 -18
36 -40 23 -45 24 -50 10 -50 -5 0 -56 -25 -112 -56 -180 -99 -265 -144 -271
-144 -7 0 39 117 58 146 8 13 15 31 15 41 0 15 2 16 11 3 8 -12 9 -10 4 8 -7
26 20 112 36 112 19 0 -5 29 -33 39 -16 6 -27 15 -23 21 3 5 1 10 -5 10 -7 0
-10 6 -7 13 2 6 10 11 16 9 7 -1 10 2 7 6 -8 14 31 45 45 36 8 -4 10 -3 5 4
-6 11 49 71 66 72 4 0 26 -28 48 -61z m-6788 -35 c95 -47 181 -94 192 -103 28
-24 36 -55 25 -95 -13 -46 -49 -70 -92 -63 -35 6 -315 137 -360 170 -58 40
-60 123 -4 157 18 11 39 20 49 20 9 0 94 -39 190 -86z m7967 75 c57 -20 78
-94 41 -142 -26 -33 -358 -197 -399 -197 -62 0 -103 94 -65 148 13 19 361 202
384 202 4 0 21 -5 39 -11z m-4634 -75 c48 -42 127 -96 178 -120 37 -18 48 -34
23 -34 -26 0 -112 -52 -144 -88 -62 -68 -77 -108 -77 -202 0 -76 3 -91 30
-139 48 -87 127 -141 228 -155 l47 -7 0 -109 c0 -109 0 -110 -27 -124 -16 -8
-43 -29 -60 -48 -83 -86 -49 -249 65 -307 21 -11 22 -17 22 -152 l0 -139 -22
5 c-20 5 -27 -2 -50 -54 -16 -33 -28 -62 -28 -64 0 -3 24 -13 53 -23 400 -130
624 -265 696 -417 70 -148 43 -246 -91 -326 l-38 -23 0 70 c0 38 5 83 11 100
17 50 -12 133 -68 193 -53 56 -215 144 -378 203 -296 109 -380 150 -450 220
-103 102 -145 236 -145 458 l0 146 -108 108 c-59 60 -179 182 -265 272 l-158
163 23 41 c43 75 186 244 270 317 97 85 221 169 333 228 44 23 82 42 85 42 3
1 23 -15 45 -35z m1223 -9 c228 -109 452 -310 590 -529 29 -44 30 -51 17 -70
-8 -11 -127 -134 -265 -272 l-250 -252 1 -155 c0 -225 -34 -338 -133 -443 -60
-64 -105 -92 -200 -128 l-67 -25 -57 34 c-31 19 -59 37 -62 39 -3 3 20 17 51
32 32 14 57 27 57 28 0 6 -73 141 -86 161 -17 23 -20 255 -4 255 18 0 81 64
102 103 43 86 13 196 -67 243 l-41 24 -2 108 -3 109 55 11 c150 30 242 127
253 267 6 74 -7 127 -47 187 -32 48 -116 112 -163 123 -27 7 -38 25 -15 25 20
0 141 76 188 119 25 22 52 40 60 41 9 0 48 -16 88 -35z m2042 -45 c0 -5 -4
-10 -10 -10 -5 0 -10 5 -10 10 0 6 5 10 10 10 6 0 10 -4 10 -10z m-2644 -46
c28 2 29 0 32 -47 l3 -49 -36 4 c-19 2 -35 0 -35 -5 0 -4 -19 -7 -42 -5 l-43
3 -3 52 c-3 50 -2 52 25 55 15 2 37 1 49 -3 11 -4 34 -6 50 -5z m-3066 -4 c0
-5 -5 -10 -11 -10 -5 0 -7 5 -4 10 3 6 8 10 11 10 2 0 4 -4 4 -10z m2910 -8
c0 -4 -5 -13 -12 -20 -8 -8 -8 -15 1 -26 13 -15 7 -36 -10 -36 -5 0 -9 20 -9
45 0 33 4 45 15 45 8 0 15 -4 15 -8z m-2199 -270 c96 -63 226 -147 289 -189
78 -50 105 -73 85 -69 -24 5 -369 25 -436 26 -10 0 -25 20 -39 53 -53 126
-120 297 -120 307 0 15 18 4 221 -128z m4746 26 c-20 -51 -49 -130 -67 -174
l-31 -82 -172 -7 c-95 -4 -203 -11 -242 -15 -38 -5 -71 -7 -73 -6 -3 4 61 45
372 238 132 81 241 146 244 144 2 -3 -12 -47 -31 -98z m-2160 20 c45 -12 83
-61 83 -106 0 -55 -46 -107 -107 -121 -76 -17 -517 -13 -576 6 -48 15 -85 52
-72 73 3 5 2 10 -3 10 -16 0 -20 47 -6 78 22 53 38 57 304 63 329 7 340 7 377
-3z m-3335 -194 c265 -104 383 -152 478 -196 81 -38 100 -52 129 -93 26 -36
30 -47 17 -42 -10 4 -39 12 -65 19 -25 6 -53 15 -63 19 -12 7 -16 5 -13 -9 1
-9 -4 -24 -12 -33 -7 -9 -16 -26 -18 -38 -2 -13 -7 -32 -11 -43 -4 -14 -2 -18
5 -14 6 4 11 4 11 -1 1 -19 55 -45 166 -78 99 -30 125 -42 154 -72 19 -20 45
-42 57 -50 13 -9 20 -19 17 -25 -3 -5 1 -8 9 -6 16 3 18 2 112 -87 l60 -56
-35 6 c-44 8 -478 102 -765 166 -121 27 -292 65 -380 85 -88 20 -164 40 -169
45 -16 15 144 559 165 559 5 0 73 -25 151 -56z m6223 19 c5 -16 9 -37 10 -47
1 -11 7 -22 13 -24 7 -2 12 -9 12 -17 0 -7 18 -68 39 -136 22 -68 42 -137 45
-154 3 -16 12 -48 20 -70 27 -72 23 -80 -41 -94 -32 -7 -215 -48 -408 -91
-300 -68 -715 -158 -863 -189 l-44 -9 44 45 c48 50 86 73 120 73 13 0 30 5 38
11 13 10 13 10 0 6 -10 -3 -16 2 -16 14 0 12 10 20 27 24 15 4 30 13 33 21 3
9 11 12 17 8 7 -4 9 -3 6 3 -7 11 49 83 65 83 5 0 6 -6 3 -12 -4 -7 0 -5 9 5
10 13 22 17 38 12 18 -5 20 -4 8 5 -12 9 -7 10 20 5 26 -5 31 -4 20 4 -13 9
-12 11 6 11 41 0 127 32 150 55 33 33 31 70 -7 107 -27 28 -34 30 -75 24 -24
-3 -59 -13 -77 -21 -27 -13 -24 -8 22 35 39 36 57 46 63 38 6 -10 8 -10 8 -1
0 18 100 64 124 58 12 -3 15 -2 8 1 -17 8 128 76 146 69 7 -3 11 -1 8 3 -3 5
21 19 52 31 31 12 69 29 85 37 15 8 33 12 40 8 6 -4 9 -3 4 1 -12 14 54 36 87
30 24 -4 26 -3 11 4 -18 8 -16 11 20 25 22 9 49 21 60 26 33 15 42 11 50 -17z
m-7171 -92 c135 -47 146 -55 146 -108 0 -37 -42 -93 -71 -93 -35 0 -206 60
-222 78 -20 22 -22 90 -4 113 12 16 46 38 60 39 4 0 45 -13 91 -29z m8101 -2
c29 -29 27 -92 -5 -123 -24 -23 -177 -76 -218 -76 -32 0 -72 55 -72 100 0 20
6 42 13 48 6 6 57 26 112 46 106 37 136 38 170 5z m-4073 -211 l2 -93 5 88 c3
48 10 87 16 87 5 0 8 -14 6 -31 -2 -21 1 -29 8 -25 6 4 11 17 11 28 0 12 3 19
6 15 9 -9 12 -207 3 -207 -5 0 -9 6 -9 13 0 9 -2 9 -9 -1 -4 -7 -14 -14 -22
-15 -8 -2 -20 -6 -27 -11 -7 -4 -44 -5 -83 -1 l-69 7 0 103 c0 57 2 110 6 118
4 10 25 15 80 16 l74 2 2 -93z m-1873 -10 c173 -75 580 -289 799 -420 57 -35
82 -56 82 -69 0 -22 0 -22 -37 -8 -50 20 -422 149 -618 214 -214 72 -462 145
-491 145 -13 0 -35 25 -66 73 l-46 72 111 16 c160 23 160 23 266 -23z m3890
25 c69 -9 127 -17 129 -19 2 -1 -17 -34 -42 -72 -41 -62 -50 -70 -85 -76 -34
-5 -244 -66 -336 -97 -16 -6 -156 -52 -310 -104 -154 -51 -324 -110 -379 -129
-54 -20 -103 -36 -108 -36 -5 0 -8 10 -6 21 2 16 35 38 128 86 69 36 196 106
283 155 182 103 553 287 581 288 10 0 75 -7 145 -17z m-6541 -35 c16 -16 15
-34 -4 -53 -15 -15 -18 -15 -35 1 -11 9 -19 22 -19 29 0 14 21 35 35 35 6 0
16 -5 23 -12z m8993 -4 c9 -11 10 -20 2 -32 -13 -22 -43 -22 -56 -1 -24 38 25
68 54 33z m-8624 -115 c16 -14 17 -51 1 -67 -17 -17 -40 -15 -150 12 -108 27
-114 29 -128 57 -9 15 -6 24 13 43 l24 24 113 -29 c63 -16 119 -34 127 -40z
m8465 54 c22 -19 24 -56 3 -73 -15 -13 -186 -59 -219 -60 -44 0 -72 54 -42 79
11 9 143 48 235 70 3 1 13 -6 23 -16z m-4143 -222 c24 -24 17 -60 -13 -63
-100 -8 -398 -10 -418 -3 -25 10 -29 44 -7 66 17 17 35 19 219 19 184 0 202
-2 219 -19z m-2024 -81 c49 -15 373 -105 500 -138 30 -8 -270 -33 -380 -31
l-50 0 -85 102 c-46 55 -76 97 -65 93 11 -4 47 -16 80 -26z m-2537 4 c27 -19
28 -38 2 -64 -15 -15 -28 -19 -53 -15 -64 12 -96 52 -65 83 17 17 89 15 116
-4z m6232 10 c0 -3 -37 -48 -81 -100 -65 -74 -86 -93 -103 -89 -11 2 -111 9
-221 16 -110 6 -201 12 -203 13 -1 2 80 24 180 50 101 26 235 62 298 81 127
37 130 38 130 29z m2572 -19 c9 -21 9 -29 -4 -42 -24 -23 -110 -30 -127 -10
-30 37 11 77 82 77 30 0 40 -5 49 -25z m-4372 -5 c-6 -11 -17 -20 -24 -20 -7
0 -13 -7 -13 -15 0 -9 9 -15 21 -15 17 0 18 2 6 10 -13 8 -13 10 2 10 16 0 18
-11 28 -145 1 -11 4 -86 6 -167 4 -114 2 -148 -7 -148 -10 0 -10 -3 -1 -12 18
-18 14 -27 -8 -21 -12 3 -18 8 -15 11 2 3 0 11 -6 19 -10 11 -15 11 -27 1 -10
-8 -13 -9 -9 -2 8 14 -16 25 -60 29 -27 2 -101 45 -78 45 5 0 18 -8 29 -17 21
-18 21 -18 2 5 -11 12 -25 22 -33 22 -10 0 -13 40 -13 204 l0 204 88 7 c75 5
108 9 120 14 1 0 -2 -8 -8 -19z m-4163 -11 c97 -14 123 -33 107 -77 -10 -27
-11 -27 -89 -25 -44 1 -100 8 -125 16 -38 11 -46 17 -48 41 -7 61 8 65 155 45z
m8291 -1 c18 -18 15 -66 -5 -76 -10 -6 -43 -13 -73 -17 -30 -3 -72 -11 -93
-16 -64 -17 -109 30 -78 80 18 27 226 52 249 29z m-7368 -138 c113 -17 255
-37 315 -46 111 -15 183 -31 198 -45 5 -3 3 -16 -4 -28 -10 -16 -11 -23 -2
-32 9 -9 11 -7 7 8 -6 22 17 45 49 50 12 2 23 8 25 13 2 6 10 6 21 0 25 -13
207 -49 283 -56 90 -8 97 -9 104 -17 4 -4 12 -7 18 -7 6 0 4 5 -4 11 -11 7 -5
9 25 5 22 -3 64 -8 92 -12 29 -3 56 -10 59 -15 3 -6 7 -91 8 -189 l3 -179 -41
-5 c-23 -3 -90 -8 -151 -12 -60 -3 -121 -11 -135 -17 -14 -5 -28 -10 -32 -9
-4 1 -10 -15 -14 -36 -3 -20 -6 -40 -7 -45 -4 -18 39 -67 56 -63 9 2 17 0 17
-5 0 -5 10 -5 23 1 20 8 290 41 320 39 6 -1 1 -5 -13 -9 -22 -7 -23 -8 -4 -9
17 -1 24 -13 37 -58 20 -70 17 -74 -73 -97 -123 -30 -325 -85 -410 -110 -47
-14 -97 -26 -112 -26 -16 0 -28 -4 -28 -8 0 -4 -13 -13 -30 -19 -24 -9 -30
-17 -30 -41 0 -43 21 -56 82 -49 44 6 54 3 69 -14 11 -12 23 -18 30 -13 9 5
10 2 6 -10 -5 -13 -3 -17 5 -13 7 2 102 35 212 72 209 72 231 74 231 25 0 -27
-1 -27 -244 -115 -85 -30 -163 -55 -174 -55 -12 0 -30 9 -41 19 -21 19 -23 19
-181 -34 -191 -63 -643 -219 -667 -229 -18 -8 -22 1 -83 239 -20 77 -34 150
-32 162 2 12 1 20 -4 18 -9 -6 -23 91 -14 105 3 5 13 10 21 10 8 0 12 -4 9
-10 -4 -6 1 -7 11 -3 15 6 15 7 -1 15 -9 6 -25 8 -35 5 -14 -3 -19 3 -24 27
-12 59 -35 370 -30 393 6 23 8 23 148 23 129 0 144 2 164 20 29 27 30 92 2
120 -18 18 -33 20 -170 20 l-150 0 6 93 c3 50 8 103 11 117 4 14 6 28 5 33 -3
12 26 8 31 -5 3 -7 6 -4 6 7 1 12 4 16 9 9 5 -9 11 -8 21 3 12 13 9 15 -28 10
-40 -4 -41 -4 -41 27 0 57 10 76 39 76 14 0 118 -14 231 -30z m6564 -1 c12
-60 9 -69 -26 -70 l-33 -2 30 -6 c36 -7 40 -23 40 -161 l0 -95 -150 -6 c-82
-3 -151 -7 -152 -7 -11 -8 -33 -66 -33 -87 0 -54 19 -60 192 -63 132 -3 158
-6 158 -18 0 -9 -7 -101 -15 -206 -14 -172 -27 -240 -42 -224 -3 2 -11 0 -17
-7 -14 -12 2 -39 17 -30 4 3 5 -6 2 -19 -3 -12 -14 -68 -25 -123 -10 -55 -34
-156 -53 -225 -37 -142 -33 -139 -132 -101 -27 11 -111 39 -185 62 -154 47
-194 65 -187 83 3 7 2 18 -2 25 -7 11 -26 -24 -46 -84 -5 -17 -9 -13 -20 20
-8 22 -26 50 -40 62 -14 12 -25 28 -26 35 0 9 -2 10 -5 1 -3 -7 -12 -9 -20 -6
-13 5 -13 8 -2 15 15 11 -25 6 -56 -7 -14 -6 -17 -5 -12 3 4 8 2 10 -7 6 -8
-3 -42 4 -77 16 l-63 21 -19 -20 c-10 -12 -26 -21 -36 -21 -18 0 -344 110
-399 135 -36 16 -43 44 -17 66 13 11 47 3 220 -55 113 -37 211 -65 218 -63 8
3 19 0 25 -6 9 -9 14 -8 21 3 5 8 6 19 3 25 -3 5 0 4 8 -2 15 -15 33 -17 25
-4 -7 10 27 21 68 21 52 0 75 58 34 84 -13 8 -77 28 -143 44 -66 17 -203 53
-305 80 -102 28 -200 53 -218 57 -28 6 -33 10 -28 29 3 12 10 46 17 76 6 30
12 56 13 57 2 2 56 -4 122 -12 211 -26 244 -18 244 59 0 72 -7 76 -165 87 -77
6 -147 15 -156 19 -14 8 -15 17 -7 62 5 29 8 110 6 180 -1 70 0 130 3 132 5 5
94 15 196 21 78 5 323 48 343 60 5 3 12 0 15 -6 4 -5 13 -8 21 -5 8 3 14 0 14
-7 0 -9 3 -8 9 1 11 17 104 36 341 67 107 14 249 34 315 44 66 10 136 19 156
20 33 1 37 -2 43 -30z m-4323 -111 c8 -12 13 -67 7 -68 -23 -4 -527 -40 -563
-40 -47 0 -54 3 -113 56 -34 31 -62 61 -62 67 0 17 720 3 731 -15z m2543 13
c4 -5 -22 -34 -56 -65 -60 -55 -63 -56 -120 -56 -59 0 -560 39 -565 43 -1 2 0
20 4 40 l6 36 131 4 c320 7 595 6 600 -2z m-5660 -200 c20 -19 26 -34 26 -65
0 -23 -6 -48 -13 -57 -27 -36 -52 -39 -300 -39 l-244 0 -26 25 c-37 37 -40 79
-11 129 16 28 66 32 321 31 220 0 222 -1 247 -24z m2449 -81 c33 -17 76 -30
96 -30 20 0 155 16 300 35 145 19 273 35 285 35 15 0 28 -14 46 -47 55 -103
189 -219 300 -259 l49 -18 -32 -45 c-46 -64 -64 -109 -72 -174 -13 -100 29
-218 107 -303 38 -41 158 -111 216 -126 21 -6 22 -10 22 -121 l0 -114 -67 -11
c-115 -19 -207 -99 -234 -204 -11 -39 -10 -56 3 -105 9 -32 15 -59 14 -61 -7
-6 -144 51 -235 98 -120 63 -247 154 -358 255 -340 311 -548 744 -588 1224
l-7 85 47 -42 c26 -23 75 -55 108 -72z m6162 80 c37 -34 35 -92 -4 -131 l-29
-29 -247 0 -247 0 -29 29 c-32 32 -38 71 -17 116 17 38 33 40 335 39 209 0
213 -1 238 -24z m-2860 -47 c-17 -198 -34 -288 -82 -438 -112 -351 -347 -682
-642 -904 -130 -98 -244 -161 -394 -222 -95 -38 -137 -48 -137 -31 0 13 -172
181 -192 188 -17 5 -18 19 -16 216 l3 211 66 27 c180 73 274 203 273 380 0 88
-12 122 -72 221 l-22 35 83 39 c95 45 204 145 253 232 16 29 36 53 44 53 14 0
273 -33 505 -64 l110 -15 65 35 c36 19 83 50 105 69 22 19 44 34 48 35 5 0 6
-30 2 -67z m-1983 -419 c2 -9 2 -95 0 -190 -2 -139 -6 -174 -17 -174 -7 0 -37
18 -65 41 -65 51 -95 113 -86 173 9 51 47 117 83 145 34 25 80 28 85 5z
m-3726 -19 c15 -23 15 -27 1 -49 -9 -13 -29 -26 -45 -29 -61 -12 -178 -18
-191 -9 -13 10 -19 57 -8 69 8 7 163 40 199 42 19 1 33 -7 44 -24z m8097 11
c105 -16 138 -38 119 -81 -13 -29 -40 -32 -155 -14 -84 13 -111 31 -102 68 11
45 15 46 138 27z m-8455 -44 c7 -5 14 -22 15 -37 2 -34 -29 -55 -83 -55 -41 0
-60 14 -60 46 0 31 4 33 110 53 3 0 11 -3 18 -7z m4245 -31 c-2 -9 3 -5 11 9
8 14 15 19 16 12 0 -7 4 -11 8 -8 13 8 112 -42 112 -56 1 -7 2 -152 2 -323 l2
-310 5 265 c4 146 10 271 15 279 6 10 6 12 -2 7 -7 -4 -12 -1 -12 7 0 7 7 14
15 14 8 0 15 -9 15 -19 0 -11 4 -17 9 -14 5 4 12 -6 15 -22 8 -35 -1 -580 -10
-594 -4 -5 -2 -13 4 -17 6 -4 5 -11 -4 -19 -8 -7 -14 -8 -14 -3 0 6 -6 8 -13
5 -10 -3 -14 8 -16 43 -3 62 -11 69 -11 10 0 -26 -2 -47 -5 -47 -15 0 -81 33
-98 48 -11 9 -21 16 -23 15 -2 -2 -10 -3 -18 -3 -11 0 -14 66 -15 383 -1 237
2 377 8 368 5 -8 7 -21 4 -30z m4551 9 c25 -20 20 -59 -8 -70 -25 -9 -90 3
-113 22 -17 14 -16 43 1 61 17 17 95 8 120 -13z m-8392 -297 c23 -20 23 -55 1
-76 -11 -9 -88 -28 -200 -48 -200 -36 -213 -34 -213 23 0 37 22 47 205 86 167
36 183 37 207 15z m7988 2 c36 -8 108 -21 160 -31 113 -19 140 -33 140 -73 0
-47 -21 -56 -93 -42 -69 14 -288 51 -299 51 -16 0 -38 34 -38 60 0 29 21 49
50 49 8 1 44 -6 80 -14z m-5727 -108 c5 -13 0 -21 -21 -29 -15 -7 -31 -12 -37
-12 -5 -1 -19 -11 -30 -23 -11 -12 -152 -89 -313 -172 -160 -83 -325 -168
-365 -190 -39 -21 -139 -73 -222 -116 -82 -43 -204 -106 -271 -141 -66 -35
-123 -64 -126 -64 -5 0 -24 41 -77 165 l-30 70 47 22 c26 12 112 50 192 84 80
34 179 77 220 96 41 20 109 49 150 65 83 33 154 64 187 80 11 6 27 7 34 3 7
-5 10 -4 6 2 -3 5 29 24 71 41 57 23 78 28 84 19 5 -8 8 -7 8 6 0 10 8 17 19
17 11 0 23 5 26 10 3 6 11 10 16 10 6 0 7 -4 4 -10 -3 -5 1 -10 9 -10 9 0 16
5 16 10 0 6 5 10 11 10 5 0 7 -4 4 -10 -9 -14 1 -12 46 9 39 19 69 19 69 0 0
-11 -27 -12 -33 -1 -2 4 -3 2 -1 -4 1 -6 -9 -9 -24 -7 -15 2 -21 0 -13 -3 11
-5 11 -8 0 -15 -7 -4 -11 -10 -8 -13 3 -3 38 11 78 31 62 32 69 38 51 45 -27
10 -23 43 5 44 39 2 46 4 41 13 -7 10 53 41 81 41 10 0 25 4 33 10 11 6 19 0
35 -28 12 -20 24 -45 28 -55z m3403 77 c-5 -13 -1 -15 23 -12 17 2 27 0 24 -5
-3 -5 4 -6 17 -2 15 5 20 4 16 -4 -4 -7 1 -11 13 -11 11 0 23 -4 26 -10 3 -5
17 -10 30 -10 33 0 136 -40 130 -50 -3 -4 5 -6 17 -2 16 4 19 2 13 -8 -6 -10
-4 -12 9 -7 13 5 244 -78 341 -123 11 -5 70 -29 130 -53 111 -45 273 -114 375
-160 30 -13 105 -46 165 -73 61 -26 111 -49 113 -50 5 -3 -78 -198 -94 -219
-15 -20 -16 -19 -87 18 -90 48 -749 388 -1002 518 -104 54 -201 107 -213 118
-13 12 -30 21 -38 21 -8 0 -28 7 -44 15 l-30 15 23 38 c13 20 26 45 30 55 3 9
9 17 13 17 3 0 3 -7 0 -16z m-6192 -90 c20 -8 21 -38 1 -54 -21 -17 -45 -5
-45 23 0 35 12 43 44 31z m8980 -16 c8 -14 7 -21 -6 -34 -30 -30 -75 9 -48 42
16 18 39 15 54 -8z m-6434 2 c0 -5 -6 -10 -14 -10 -8 0 -18 5 -21 10 -3 6 3
10 14 10 12 0 21 -4 21 -10z m403 -194 l36 -43 -22 -20 c-24 -22 -404 -293
-537 -383 -105 -72 -355 -251 -550 -396 -86 -64 -168 -123 -183 -132 -26 -16
-28 -16 -44 7 -36 48 -123 194 -123 207 0 7 35 32 78 55 186 102 1058 605
1202 695 47 29 90 53 96 53 7 1 28 -19 47 -43z m3194 -19 c59 -35 171 -101
248 -147 246 -146 294 -173 620 -355 176 -98 339 -189 363 -202 l43 -24 -27
-47 c-43 -75 -124 -192 -132 -192 -4 0 -63 42 -132 93 -169 127 -586 426 -800
575 -251 175 -338 237 -360 257 -19 17 -18 18 13 61 18 24 37 43 44 44 7 0 61
-29 120 -63z m-4573 -12 c14 -14 13 -18 -5 -36 -16 -16 -20 -31 -17 -60 2 -21
1 -39 -3 -39 -10 0 -36 34 -43 57 -8 24 15 78 36 86 7 3 14 6 15 6 1 1 8 -6
17 -14z m-889 -181 c30 -32 33 -88 7 -121 -16 -21 -165 -90 -291 -135 -45 -16
-59 -17 -83 -7 -57 23 -77 108 -35 148 13 12 84 46 157 76 73 30 135 57 138
60 3 3 23 5 44 5 29 0 45 -7 63 -26z m7745 -10 c47 -20 102 -42 123 -49 121
-45 151 -89 112 -164 -22 -43 -60 -52 -125 -31 -95 31 -263 107 -287 130 -52
50 -12 150 59 150 18 0 71 -16 118 -36z m-5261 -38 c20 -21 29 -36 22 -40 -6
-4 -16 -4 -23 0 -7 5 -8 3 -4 -5 5 -7 15 -10 23 -7 11 5 13 1 8 -15 -5 -15 -4
-19 4 -15 6 4 11 2 11 -3 0 -6 5 -11 11 -11 8 0 7 5 -1 15 -19 23 -8 26 19 4
26 -22 22 -52 -6 -43 -15 5 -15 4 -3 -4 15 -12 12 -18 -52 -86 -15 -16 -39
-43 -53 -60 -90 -110 -110 -132 -129 -137 -13 -3 -26 1 -34 10 -11 14 -11 14
-6 -1 5 -13 1 -18 -14 -18 -10 0 -36 -11 -56 -25 -42 -29 -54 -32 -36 -10 10
13 11 18 1 28 -10 9 -11 8 -6 -5 4 -11 -1 -21 -14 -30 -12 -7 -21 -17 -21 -22
0 -4 7 -2 17 5 14 12 16 12 12 0 -7 -19 -20 -23 -39 -11 -12 7 -11 13 10 34
13 15 18 26 12 26 -9 0 -9 5 0 20 7 11 19 18 26 15 8 -3 10 0 6 7 -5 8 -2 9
10 5 9 -4 15 -3 13 1 -3 4 -1 17 4 30 7 18 14 22 31 18 13 -3 17 -3 11 0 -21
9 -15 26 6 19 11 -3 22 -2 24 3 3 4 -5 8 -18 7 -16 0 -48 -23 -94 -69 -58 -58
-68 -72 -58 -84 10 -12 8 -14 -9 -8 -15 4 -29 -3 -55 -31 -18 -20 -26 -31 -16
-24 28 21 35 2 8 -21 -20 -15 -22 -21 -11 -28 11 -7 10 -11 -3 -25 -24 -24
-21 -32 3 -10 12 10 18 25 15 32 -2 8 6 25 20 39 30 29 31 36 8 27 -16 -6 -17
-5 -3 13 8 10 15 21 17 23 1 2 13 -8 27 -22 13 -13 21 -28 17 -33 -5 -5 -15
-36 -24 -69 -17 -64 -14 -96 17 -169 9 -21 13 -43 9 -49 -3 -5 -1 -7 5 -3 16
10 27 -15 11 -26 -11 -8 -11 -9 2 -5 10 3 26 -5 40 -19 12 -13 30 -26 40 -29
9 -3 27 -30 39 -59 25 -63 59 -98 118 -121 23 -10 42 -21 42 -25 0 -5 -22 -16
-49 -25 -58 -19 -69 -30 -113 -119 l-35 -69 -12 32 c-8 17 -17 31 -21 31 -4 0
-17 -17 -28 -37 -24 -45 -100 -179 -140 -246 -26 -45 -30 -48 -45 -33 -8 9
-18 16 -22 16 -27 0 -351 243 -485 365 -25 22 -58 50 -73 62 -43 34 -57 15
273 363 221 233 771 790 780 790 3 0 21 -15 39 -34z m2936 -258 c266 -268 344
-349 550 -568 129 -136 225 -249 225 -264 0 -8 -15 -26 -32 -40 -18 -15 -44
-36 -58 -49 -152 -135 -164 -144 -285 -235 -60 -45 -117 -88 -125 -95 -8 -6
-21 -12 -30 -12 -8 0 -15 -5 -15 -12 0 -11 -74 -68 -80 -61 -1 2 -34 53 -72
113 -38 61 -104 165 -146 231 -42 67 -77 124 -77 127 0 11 72 29 96 24 13 -2
24 0 24 5 0 5 21 18 48 30 109 48 165 127 174 246 3 38 1 57 -5 50 -5 -8 -7 0
-3 22 4 21 3 30 -3 22 -6 -10 -11 -5 -21 17 -25 61 -124 131 -187 131 -10 0
-59 53 -149 160 -12 14 -40 47 -63 73 -23 27 -38 53 -35 59 4 6 2 8 -3 5 -13
-8 -47 29 -38 42 3 6 0 9 -7 6 -12 -4 -69 63 -96 114 -10 20 -10 27 4 43 11
12 24 16 37 12 16 -5 19 -3 14 12 -6 18 -6 18 6 1 33 -51 35 -52 48 -40 10 10
9 16 -1 28 -10 12 -15 13 -21 3 -5 -8 -10 -3 -14 15 -8 30 16 77 38 77 7 0
143 -132 302 -292z m-1764 247 c33 -9 93 -31 135 -50 221 -101 366 -257 396
-425 18 -104 -27 -233 -107 -310 l-36 -35 3 180 c3 196 2 203 -61 283 -80 102
-342 238 -499 258 -73 9 -100 53 -61 100 16 19 154 18 230 -1z m1459 -65 c0
-5 -4 -10 -10 -10 -5 0 -10 5 -10 10 0 6 5 10 10 10 6 0 10 -4 10 -10z m-2332
-166 c3 -2 -16 -31 -114 -171 -17 -24 -47 -64 -67 -88 l-38 -44 -35 39 -36 40
78 102 c43 57 91 120 107 140 l30 37 36 -27 c20 -14 38 -27 39 -28z m2182 -66
c52 -66 99 -128 103 -138 6 -12 0 -33 -21 -70 l-30 -53 -96 129 c-52 71 -103
144 -113 162 l-18 33 35 29 c19 16 37 29 40 29 3 0 48 -54 100 -121z m-3131 0
c11 -29 7 -36 -55 -89 -28 -24 -104 -91 -168 -149 -65 -58 -148 -132 -186
-165 -38 -33 -100 -88 -139 -122 -40 -35 -75 -63 -79 -63 -8 0 -72 85 -72 95
0 2 31 28 69 57 38 29 140 108 227 175 283 218 369 281 382 282 7 1 16 -9 21
-21z m3968 -2 c15 -13 102 -79 193 -148 243 -182 417 -317 430 -334 10 -11 5
-23 -25 -59 l-37 -46 -46 37 c-26 21 -69 58 -97 84 -27 26 -68 62 -91 81 -98
82 -390 343 -397 356 -12 20 2 53 23 53 10 0 31 -11 47 -24z m-2866 -13 c36
-21 36 -26 2 -88 -17 -32 -20 -45 -10 -37 9 8 19 24 23 35 7 22 7 22 15 2 7
-14 7 -11 3 12 -8 45 12 50 45 13 26 -30 31 -32 69 -25 33 5 52 2 86 -14 42
-21 43 -23 36 -55 -5 -24 -2 -44 12 -72 10 -21 17 -43 14 -49 -2 -6 2 -19 10
-30 8 -10 11 -29 8 -44 -4 -17 -2 -22 3 -13 7 9 14 3 26 -22 15 -32 15 -39 -9
-128 -13 -51 -31 -124 -39 -163 -9 -38 -20 -83 -25 -100 -5 -16 -12 -48 -16
-70 -6 -46 -25 -129 -84 -380 -23 -99 -55 -242 -70 -318 -16 -76 -30 -141 -33
-143 -9 -9 -129 28 -133 41 -3 7 35 149 85 316 49 167 95 324 101 349 13 47
20 130 11 127 -4 -1 -18 7 -33 17 -15 9 -45 19 -68 21 -40 3 -41 2 -65 -45
-14 -27 -39 -84 -56 -127 -51 -130 -241 -573 -245 -573 -20 0 -82 34 -77 43 3
6 1 7 -5 3 -9 -5 -233 92 -250 109 -2 2 13 39 33 82 21 43 51 107 68 143 16
36 37 71 46 78 9 8 10 11 3 7 -15 -8 91 213 115 239 10 11 12 16 6 12 -14 -8
-7 19 10 42 8 11 12 11 19 0 5 -8 6 -2 2 14 -5 22 -2 29 12 34 11 3 31 12 47
20 15 8 33 12 40 8 6 -4 9 -4 5 0 -10 11 31 48 44 40 6 -4 8 -3 5 3 -4 6 5 36
19 67 31 69 30 149 -5 241 l-23 60 91 160 c50 88 91 163 91 167 0 12 9 10 41
-9z m1739 -1 c0 -4 40 -73 90 -152 l90 -145 -36 -32 c-19 -18 -42 -33 -50 -33
-8 0 -13 -3 -12 -7 1 -5 -4 -24 -11 -43 -21 -55 -23 -62 -24 -107 0 -48 16
-95 51 -142 14 -19 20 -31 12 -26 -9 5 -11 4 -6 -3 4 -7 14 -12 22 -12 8 0 17
-6 20 -13 3 -8 10 -14 17 -15 7 -1 43 -10 81 -20 67 -17 93 -40 78 -66 -3 -5
-1 -6 4 -3 13 7 117 -201 108 -215 -4 -6 -3 -8 3 -5 13 8 54 -69 47 -91 -5
-13 -4 -14 4 -3 8 11 11 9 17 -10 5 -13 7 -26 6 -28 -2 -2 1 -7 7 -10 13 -9
112 -199 112 -216 0 -21 -278 -155 -320 -155 -13 0 -62 110 -56 126 3 8 2 13
-2 10 -8 -4 -82 158 -82 178 0 5 -6 17 -14 25 -7 9 -48 98 -91 199 -46 108
-84 186 -95 192 -47 25 -119 0 -140 -49 -13 -32 -12 -37 46 -241 14 -52 32
-113 38 -135 6 -22 13 -42 17 -45 3 -3 9 -16 12 -30 10 -45 65 -235 76 -263
25 -63 13 -72 -119 -101 l-25 -5 -34 182 c-35 192 -59 307 -92 447 -11 47 -44
194 -74 328 -52 239 -53 243 -36 277 9 20 21 32 26 28 4 -4 5 -3 1 4 -8 14 24
133 36 133 4 0 8 -7 8 -17 0 -9 3 -14 6 -10 9 9 -6 48 -17 42 -5 -4 -9 -1 -9
4 0 6 4 11 9 11 5 0 8 34 7 75 l-1 75 54 21 c30 11 59 18 65 15 6 -2 3 -5 -6
-5 -9 -1 -20 -5 -23 -11 -4 -6 2 -7 17 -1 13 4 23 14 23 21 0 15 34 29 53 23
6 -3 12 -14 12 -25 0 -14 5 -18 16 -14 11 4 15 2 11 -8 -3 -8 1 -17 9 -20 9
-3 12 -11 8 -17 -4 -8 -3 -9 5 -5 6 4 8 12 5 18 -4 7 -2 8 4 4 7 -4 12 -15 12
-24 1 -21 50 -102 50 -82 0 9 -8 27 -17 40 -10 14 -23 38 -28 55 -6 16 -17 29
-24 27 -8 -2 -11 3 -8 11 7 18 -7 40 -28 43 -9 1 -20 6 -23 10 -4 4 -1 5 7 2
8 -2 24 6 37 19 22 22 64 32 64 15z m-970 -44 c0 -6 7 -8 15 -4 23 8 64 -11
107 -50 21 -19 43 -32 48 -29 5 3 11 1 15 -4 3 -6 8 -153 10 -328 4 -244 2
-319 -8 -325 -9 -6 -9 -8 1 -8 6 0 12 -6 12 -14 0 -13 -83 -24 -180 -22 l-45
1 -3 402 c-3 361 -1 402 12 397 9 -3 16 -11 16 -16z m3891 -57 c63 -34 120
-69 127 -78 27 -37 2 -103 -39 -103 -22 0 -61 17 -109 46 -19 11 -62 35 -95
53 -98 53 -117 90 -71 136 30 30 29 30 187 -54z m-7427 47 c35 -49 9 -86 -99
-144 -196 -104 -174 -96 -206 -77 -24 14 -29 24 -29 55 0 43 -4 40 155 127
120 66 155 73 179 39z m3345 5 c23 -15 24 -20 17 -102 -3 -47 -12 -106 -19
-130 l-13 -43 -36 34 c-35 32 -58 87 -58 136 0 48 45 122 73 122 7 0 23 -7 36
-17z m-435 -16 c3 3 6 1 6 -6 0 -16 -42 -10 -48 7 -3 11 0 12 16 3 10 -6 22
-7 26 -4z m-954 -47 c0 -5 -8 -10 -17 -10 -15 0 -16 2 -3 10 19 12 20 12 20 0z
m1097 -77 c-3 -10 -5 -4 -5 12 0 17 2 24 5 18 2 -7 2 -21 0 -30z m-867 -85
c54 -58 -23 -135 -80 -78 -26 26 -25 46 5 75 30 31 48 31 75 3z m2870 -123
c66 -34 80 -145 25 -192 -32 -28 -105 -33 -105 -8 0 9 7 18 16 22 13 5 15 16
9 61 -4 31 -11 67 -17 81 -7 20 -6 28 8 38 23 17 29 16 64 -2z m225 -79 c13
-19 13 -28 4 -49 -13 -29 -39 -43 -49 -27 -4 6 -8 36 -9 66 -2 53 -1 55 18 44
12 -6 28 -21 36 -34z m-443 17 c37 -42 28 -101 -19 -122 -34 -16 -47 -14 -77
10 -30 24 -35 72 -10 107 19 28 83 31 106 5z m-2424 -18 c31 -39 14 -85 -38
-104 -62 -21 -108 61 -60 109 28 28 74 26 98 -5z m-2198 -2 c29 -17 50 -51 50
-82 0 -33 -40 -70 -176 -164 -196 -134 -214 -143 -260 -132 -31 8 -43 18 -57
48 -23 46 -16 81 21 115 43 39 355 232 375 232 11 0 32 -7 47 -17z m7021 -82
c214 -138 229 -151 229 -206 0 -36 -5 -47 -32 -70 -50 -42 -85 -32 -230 68
-68 47 -147 102 -175 122 -73 50 -83 106 -28 161 42 42 69 33 236 -75z m-3929
-4 l28 -23 -25 -114 c-13 -63 -27 -131 -30 -150 -4 -25 -13 -40 -35 -52 -29
-17 -30 -17 -30 5 0 37 53 357 59 357 3 -1 18 -11 33 -23z m696 -194 c12 -65
22 -128 22 -140 0 -22 0 -22 -35 -6 -26 12 -36 24 -39 47 -3 17 -10 65 -16
106 -11 72 -10 75 12 92 13 10 26 18 29 18 3 0 15 -53 27 -117z m-3465 -153
c33 -26 43 -70 24 -107 -8 -15 -41 -53 -74 -83 -32 -30 -138 -131 -235 -223
-165 -157 -179 -167 -215 -167 -50 0 -80 22 -94 69 -16 52 -3 73 106 172 50
45 140 128 200 185 168 156 192 174 230 174 18 0 44 -9 58 -20z m6284 -12 c50
-41 431 -393 457 -421 24 -28 16 -90 -15 -123 -17 -18 -33 -24 -64 -24 -39 0
-49 7 -141 92 -162 151 -357 339 -381 367 -30 34 -29 72 3 110 36 44 86 43
141 -1z m-3058 -73 c144 -34 298 -150 353 -265 53 -112 64 -268 27 -378 -11
-34 -22 -62 -24 -62 -2 0 -2 35 1 77 4 78 -8 140 -41 202 -8 17 -20 29 -25 26
-5 -3 -12 0 -16 6 -5 8 -3 9 6 4 8 -5 11 -3 8 6 -3 8 -11 13 -17 11 -7 -1 -10
2 -7 7 8 12 -18 33 -35 29 -8 -2 -13 3 -11 10 1 8 -2 11 -7 8 -5 -3 -20 3 -32
14 -21 17 -21 19 -4 13 l20 -6 -20 23 c-30 35 -142 82 -179 75 -24 -4 -27 -3
-11 4 14 7 16 10 5 11 -8 1 -37 5 -65 9 -27 5 -54 7 -58 4 -10 -6 -101 -15
-140 -14 -15 0 -25 -4 -22 -9 6 -9 -23 -15 -54 -11 -7 2 -10 -2 -7 -7 7 -12
-62 -44 -76 -36 -6 4 -8 2 -5 -3 4 -6 0 -14 -9 -17 -10 -4 -13 -2 -8 6 4 6 -5
3 -19 -8 -15 -10 -25 -24 -22 -30 2 -7 -8 -22 -23 -35 -14 -13 -20 -16 -13 -6
7 9 9 17 4 17 -14 0 -43 -38 -43 -57 0 -15 2 -14 16 3 15 18 15 18 5 -3 -7
-14 -18 -20 -30 -18 -15 3 -18 -1 -14 -12 4 -10 2 -14 -4 -10 -7 4 -19 -12
-30 -40 -19 -50 -25 -169 -11 -231 12 -51 -7 -29 -33 40 -20 52 -24 81 -24
168 1 158 38 256 136 352 63 62 152 109 245 132 79 19 234 19 313 1z m-2860
-251 c11 -14 17 -32 14 -42 -5 -13 -126 -156 -163 -192 -3 -3 -36 -40 -73 -82
-76 -86 -99 -99 -128 -72 -39 35 -25 67 72 177 160 178 219 237 238 237 11 0
29 -12 40 -26z m5537 -36 c109 -116 239 -269 248 -292 12 -31 2 -54 -30 -68
-24 -11 -29 -9 -63 28 -20 22 -78 86 -130 142 -159 174 -171 194 -134 234 27
30 47 21 109 -44z m-2549 32 c14 -11 22 -20 18 -20 -4 0 -18 9 -32 20 -14 11
-22 20 -18 20 4 0 18 -9 32 -20z m-172 -92 c4 -4 10 -26 12 -50 5 -42 3 -45
-45 -85 -27 -23 -67 -50 -88 -59 -22 -9 -51 -22 -66 -30 l-28 -13 0 119 c0
104 2 119 18 124 25 7 189 2 197 -6z m-2605 -78 c11 -11 20 -26 20 -33 0 -11
-25 -54 -39 -67 -3 -3 -43 -46 -89 -97 -46 -51 -92 -95 -103 -98 -22 -7 -59
19 -59 41 0 26 217 274 240 274 6 0 19 -9 30 -20z m5114 -57 c31 -37 56 -75
56 -83 0 -9 -11 -27 -25 -40 -24 -23 -25 -23 -47 -5 -39 32 -89 89 -105 119
-21 40 -5 76 35 76 24 0 40 -13 86 -67z m-2277 -81 c17 -45 16 -50 -21 -147
-8 -22 -15 -36 -16 -32 0 5 -7 1 -16 -7 -8 -9 -13 -20 -10 -25 9 -14 -28 -41
-43 -31 -18 10 -43 2 -35 -12 4 -6 9 -6 14 2 5 8 10 8 14 2 9 -15 -42 -44 -80
-45 -20 -1 -29 -4 -21 -9 6 -4 20 -5 30 -2 9 3 17 3 17 0 0 -2 -17 -10 -37
-17 -21 -6 -44 -18 -51 -26 -7 -7 -22 -13 -33 -13 -10 0 -19 -4 -19 -9 0 -5
-10 -13 -22 -17 -31 -9 -169 -89 -197 -113 -13 -11 -28 -18 -35 -15 -7 3 -21
-11 -32 -31 -25 -46 -32 -28 -33 80 -1 151 62 229 272 336 188 96 286 171 287
220 1 22 48 -41 67 -89z m-594 -21 c7 -37 5 -46 -18 -77 -14 -19 -30 -34 -36
-34 -15 0 -10 87 8 125 21 44 35 40 46 -14z m3056 -106 c60 -69 66 -82 47
-110 -21 -32 -48 -32 -82 2 -36 36 -74 92 -74 109 0 7 10 22 21 33 26 24 42
18 88 -34z m-5566 -25 c25 -29 21 -65 -9 -89 -32 -25 -38 -26 -58 -5 -23 22
-20 48 10 83 30 37 34 37 57 11z m635 -15 c15 -19 18 -32 13 -53 -11 -36 -185
-319 -219 -354 -52 -56 -119 -24 -113 54 0 10 40 75 87 145 47 70 92 139 99
153 21 41 66 80 91 80 12 0 32 -11 42 -25z m4348 7 c12 -9 55 -69 96 -132 134
-208 149 -235 142 -256 -21 -59 -74 -71 -115 -26 -36 39 -217 324 -224 354 -8
30 28 78 58 78 12 0 32 -8 43 -18z m-3923 -254 c9 -11 17 -28 17 -38 0 -10
-45 -108 -100 -218 -89 -178 -103 -201 -131 -211 -28 -10 -34 -8 -60 18 -16
16 -29 37 -29 45 0 28 189 390 216 414 29 26 58 23 87 -10z m3509 5 c24 -28
195 -368 203 -402 5 -25 2 -35 -19 -56 -27 -27 -46 -31 -76 -15 -22 12 -220
401 -220 432 0 51 78 79 112 41z m-1558 -157 c20 -43 21 -108 1 -150 -25 -52
-81 -99 -215 -181 -128 -79 -186 -122 -237 -175 -15 -16 -30 -30 -33 -30 -9 0
-28 59 -36 106 -14 92 67 197 226 291 154 91 215 132 240 158 27 29 32 27 54
-19z m-1429 -71 c14 -13 25 -35 25 -48 0 -13 -18 -89 -40 -168 -22 -79 -47
-173 -56 -209 -23 -89 -54 -130 -100 -130 -46 0 -70 14 -89 50 -18 36 -20 28
57 285 37 122 68 209 81 223 29 31 90 30 122 -3z m2493 8 c12 -11 33 -58 51
-118 58 -197 93 -331 93 -364 0 -75 -94 -114 -148 -60 -19 20 -36 67 -74 205
-27 98 -54 195 -60 214 -16 56 -12 89 15 115 30 30 92 34 123 8z m-2075 -123
c12 -18 13 -31 2 -88 -17 -85 -23 -100 -46 -113 -27 -14 -59 9 -59 43 0 42 21
131 36 156 18 28 48 28 67 2z m1606 6 c7 -8 19 -52 26 -98 8 -46 28 -164 45
-262 28 -164 29 -181 15 -203 -17 -26 -47 -30 -64 -9 -7 8 -27 97 -45 198 -59
319 -63 352 -46 373 16 19 54 19 69 1z m-282 -40 c14 -17 27 -75 47 -200 32
-199 33 -220 16 -241 -17 -21 -57 -19 -69 4 -6 10 -22 95 -36 187 -13 93 -27
183 -30 201 -4 24 -1 37 15 53 26 26 34 25 57 -4z m-1047 -1 c10 -12 8 -47
-14 -183 -15 -92 -29 -183 -32 -202 -7 -43 -30 -70 -59 -70 -49 0 -50 17 -16
223 38 231 44 247 81 247 15 0 33 -7 40 -15z m800 -146 c0 -10 -4 -19 -9 -19
-5 0 -8 11 -7 24 1 28 16 24 16 -5z m-30 -4 c-7 -9 -15 -13 -17 -11 -7 7 7 26
19 26 6 0 6 -6 -2 -15z m-1102 -128 c8 -10 6 -42 -9 -127 -22 -123 -29 -140
-64 -140 -50 0 -53 29 -25 193 17 98 55 126 98 74z m957 -9 c37 -44 49 -194
19 -248 -7 -14 -44 -58 -82 -98 l-69 -74 -81 90 c-44 49 -85 99 -91 110 -22
41 15 97 119 177 106 81 145 90 185 43z m-711 -270 c8 -14 7 -21 -6 -34 -30
-30 -75 9 -48 42 16 18 39 15 54 -8z m1214 -4 c2 -11 -4 -26 -12 -33 -31 -26
-71 14 -45 45 17 21 53 14 57 -12z"/>
<path d="M4214 8486 c4 -15 10 -42 13 -58 7 -33 67 -78 161 -118 54 -23 100
-21 109 5 2 9 -210 153 -241 164 -6 2 -20 11 -30 20 -18 15 -19 15 -12 -13z"/>
<path d="M5889 8434 c-147 -90 -173 -112 -158 -131 18 -21 49 -16 126 21 78
38 107 62 118 98 4 12 16 38 27 56 11 17 18 32 16 32 -2 0 -60 -34 -129 -76z"/>
<path d="M4437 8232 c-20 -22 -22 -63 -5 -80 21 -21 66 -14 84 13 20 30 10 63
-23 76 -33 12 -37 12 -56 -9z"/>
<path d="M5722 8234 c-24 -17 -30 -62 -10 -82 30 -30 91 -2 91 42 0 45 -43 67
-81 40z"/>
<path d="M6051 7334 c0 -11 3 -14 6 -6 3 7 2 16 -1 19 -3 4 -6 -2 -5 -13z"/>
<path d="M3774 8036 c-3 -8 -4 -23 -2 -33 3 -11 6 -6 9 15 6 34 2 42 -7 18z"/>
<path d="M3808 7963 c7 -3 16 -2 19 1 4 3 -2 6 -13 5 -11 0 -14 -3 -6 -6z"/>
<path d="M3906 7335 c-9 -26 -7 -32 5 -12 6 10 9 21 6 23 -2 3 -7 -2 -11 -11z"/>
<path d="M5024 7802 c-75 -27 -128 -73 -163 -144 -94 -188 39 -404 249 -403
240 2 368 274 215 461 -70 85 -201 122 -301 86z"/>
<path d="M5661 7484 c0 -11 3 -14 6 -6 3 7 2 16 -1 19 -3 4 -6 -2 -5 -13z"/>
<path d="M4522 7385 c0 -16 2 -22 5 -12 2 9 2 23 0 30 -3 6 -5 -1 -5 -18z"/>
<path d="M4521 7343 c0 -4 4 -17 9 -28 8 -19 9 -19 9 2 1 12 -3 25 -9 28 -5 3
-10 3 -9 -2z"/>
<path d="M4730 7155 c13 -14 26 -25 28 -25 3 0 -5 11 -18 25 -13 14 -26 25
-28 25 -3 0 5 -11 18 -25z"/>
<path d="M5467 7143 c-10 -9 -9 -23 1 -23 5 0 9 7 9 15 0 17 -1 18 -10 8z"/>
<path d="M5422 7113 c-6 -2 -10 -9 -6 -14 8 -14 21 -11 21 6 0 8 -1 15 -1 14
-1 0 -7 -3 -14 -6z"/>
<path d="M4800 7106 c0 -2 8 -10 18 -17 15 -13 16 -12 3 4 -13 16 -21 21 -21
13z"/>
<path d="M4863 7067 c15 -6 27 -14 27 -19 0 -4 5 -8 10 -8 22 0 8 19 -21 29
-41 14 -53 12 -16 -2z"/>
<path d="M5275 7044 c-33 -12 -53 -23 -45 -23 18 -1 78 20 105 36 30 18 7 13
-60 -13z"/>
<path d="M4938 7033 c7 -3 16 -2 19 1 4 3 -2 6 -13 5 -11 0 -14 -3 -6 -6z"/>
<path d="M4998 7013 c6 -2 18 -2 25 0 6 3 1 5 -13 5 -14 0 -19 -2 -12 -5z"/>
<path d="M5078 7013 c23 -2 61 -2 85 0 23 2 4 4 -43 4 -47 0 -66 -2 -42 -4z"/>
<path d="M5178 6993 c7 -3 16 -2 19 1 4 3 -2 6 -13 5 -11 0 -14 -3 -6 -6z"/>
<path d="M6864 7686 c3 -16 8 -31 11 -35 3 -3 4 7 1 23 -3 16 -8 31 -11 35 -3
3 -4 -7 -1 -23z"/>
<path d="M7269 7443 c-13 -16 -12 -17 4 -4 9 7 17 15 17 17 0 8 -8 3 -21 -13z"/>
<path d="M7186 7375 c-11 -8 -15 -15 -9 -15 6 0 16 7 23 15 16 19 11 19 -14 0z"/>
<path d="M6670 6740 c-13 -11 -19 -20 -13 -20 5 0 18 9 28 20 10 11 16 20 13
20 -3 0 -15 -9 -28 -20z"/>
<path d="M7895 6590 c-3 -6 1 -7 9 -4 18 7 21 14 7 14 -6 0 -13 -4 -16 -10z"/>
<path d="M4789 6316 c13 -16 103 -18 94 -3 -3 5 -17 7 -31 4 -14 -3 -37 -1
-50 4 -21 8 -23 8 -13 -5z"/>
<path d="M5168 6313 c23 -2 59 -2 80 0 20 2 1 4 -43 4 -44 0 -61 -2 -37 -4z"/>
<path d="M5323 6313 c9 -2 23 -2 30 0 6 3 -1 5 -18 5 -16 0 -22 -2 -12 -5z"/>
<path d="M5378 6313 c7 -3 16 -2 19 1 4 3 -2 6 -13 5 -11 0 -14 -3 -6 -6z"/>
<path d="M1918 6253 c7 -3 16 -2 19 1 4 3 -2 6 -13 5 -11 0 -14 -3 -6 -6z"/>
<path d="M2024 6215 c36 -19 47 -19 22 0 -11 8 -27 15 -35 15 -9 0 -3 -7 13
-15z"/>
<path d="M2055 6189 l-20 -8 20 -1 c11 -1 31 -2 45 -1 23 1 23 0 5 -8 -13 -7
-15 -10 -5 -10 8 0 22 4 30 9 8 5 13 10 10 10 -3 0 -19 4 -35 9 -17 4 -39 5
-50 0z"/>
<path d="M2160 6157 c8 -8 28 -18 45 -22 38 -9 30 0 -21 21 -32 13 -36 13 -24
1z"/>
<path d="M2278 6113 c7 -3 16 -2 19 1 4 3 -2 6 -13 5 -11 0 -14 -3 -6 -6z"/>
<path d="M2250 6100 c12 -8 12 -10 1 -10 -8 0 -12 -2 -9 -5 3 -3 13 -2 22 1
14 5 15 9 4 15 -7 5 -17 9 -23 9 -5 0 -3 -5 5 -10z"/>
<path d="M2385 6070 c27 -12 43 -12 25 0 -8 5 -22 9 -30 9 -10 0 -8 -3 5 -9z"/>
<path d="M2431 6046 c-9 -10 -8 -15 5 -20 24 -9 31 -7 14 5 -12 9 -11 10 8 6
27 -6 28 -1 3 12 -14 8 -22 7 -30 -3z"/>
<path d="M2500 6020 c-12 -8 -10 -10 8 -10 13 0 20 4 17 10 -7 12 -6 12 -25 0z"/>
<path d="M2400 6016 c0 -2 7 -7 16 -10 8 -3 12 -2 9 4 -6 10 -25 14 -25 6z"/>
<path d="M2048 5813 c6 -2 18 -2 25 0 6 3 1 5 -13 5 -14 0 -19 -2 -12 -5z"/>
<path d="M2198 5773 c7 -3 16 -2 19 1 4 3 -2 6 -13 5 -11 0 -14 -3 -6 -6z"/>
<path d="M2398 5733 c7 -3 16 -2 19 1 4 3 -2 6 -13 5 -11 0 -14 -3 -6 -6z"/>
<path d="M2837 5630 c9 -8 100 -24 92 -15 -3 3 -27 9 -53 14 -26 5 -44 5 -39
1z"/>
<path d="M2948 5613 c7 -3 16 -2 19 1 4 3 -2 6 -13 5 -11 0 -14 -3 -6 -6z"/>
<path d="M7934 5878 l-19 -23 23 19 c21 18 27 26 19 26 -2 0 -12 -10 -23 -22z"/>
<path d="M7846 5867 c3 -10 9 -15 12 -12 3 3 0 11 -7 18 -10 9 -11 8 -5 -6z"/>
<path d="M7468 5653 c6 -2 18 -2 25 0 6 3 1 5 -13 5 -14 0 -19 -2 -12 -5z"/>
<path d="M5052 5925 c0 -16 2 -22 5 -12 2 9 2 23 0 30 -3 6 -5 -1 -5 -18z"/>
<path d="M5158 5510 c4 -41 22 -57 22 -19 0 11 5 29 10 40 7 12 7 19 1 19 -5
0 -12 -8 -14 -17 -4 -17 -5 -17 -6 0 0 9 -4 17 -9 17 -4 0 -6 -18 -4 -40z"/>
<path d="M5023 5400 c0 -25 2 -35 4 -22 2 12 2 32 0 45 -2 12 -4 2 -4 -23z"/>
<path d="M5164 5315 c0 -71 1 -99 3 -62 2 37 2 96 0 130 -2 34 -3 4 -3 -68z"/>
<path d="M1770 5371 c-9 -7 2 -9 35 -8 74 2 204 -13 253 -30 26 -9 61 -12 90
-8 33 3 41 2 27 -4 -15 -7 -7 -10 35 -11 30 0 90 -2 132 -3 43 -1 78 1 78 6 0
6 -29 9 -140 12 -19 1 -42 4 -50 8 -14 6 -386 47 -426 47 -10 0 -26 -4 -34 -9z
m337 -37 c-3 -3 -12 -4 -19 -1 -8 3 -5 6 6 6 11 1 17 -2 13 -5z"/>
<path d="M2435 5309 c-4 -6 -5 -12 -2 -15 2 -3 7 2 10 11 7 17 1 20 -8 4z"/>
<path d="M2530 5241 c0 -4 11 -6 25 -3 14 2 25 6 25 8 0 2 -11 4 -25 4 -14 0
-25 -4 -25 -9z"/>
<path d="M2620 5239 c0 -5 5 -7 10 -4 6 3 10 8 10 11 0 2 -4 4 -10 4 -5 0 -10
-5 -10 -11z"/>
<path d="M2676 5229 c6 -11 76 -10 119 1 21 5 7 7 -47 7 -43 0 -75 -3 -72 -8z"/>
<path d="M2853 5223 c9 -2 23 -2 30 0 6 3 -1 5 -18 5 -16 0 -22 -2 -12 -5z"/>
<path d="M2695 5200 c-3 -6 1 -7 9 -4 18 7 21 14 7 14 -6 0 -13 -4 -16 -10z"/>
<path d="M2630 5181 c0 -5 5 -13 10 -16 6 -3 10 -2 10 4 0 5 -4 13 -10 16 -5
3 -10 2 -10 -4z"/>
<path d="M2290 4976 c0 -2 15 -6 34 -8 19 -2 32 0 30 4 -5 8 -64 12 -64 4z"/>
<path d="M2865 4973 c-31 -7 -40 -21 -11 -16 15 3 29 9 32 14 3 5 4 8 2 8 -2
-1 -12 -3 -23 -6z"/>
<path d="M2755 4941 c-22 -10 -55 -35 -73 -54 -32 -36 -46 -75 -27 -76 6 0 10
7 11 17 2 33 4 37 15 22 8 -12 9 -10 4 9 -5 17 -4 22 5 16 9 -6 11 -4 6 4 -5
8 0 14 13 18 11 3 19 9 16 13 -6 10 53 35 62 26 3 -3 1 -6 -6 -6 -7 0 -9 -4
-6 -10 3 -5 11 -10 16 -10 6 0 8 4 5 9 -4 5 0 12 6 14 10 4 10 6 0 6 -7 1 -10
6 -7 11 8 13 7 13 -40 -9z"/>
<path d="M2493 4891 c1 -11 4 -18 8 -15 4 2 15 -6 23 -18 9 -12 16 -18 16 -12
0 6 -11 23 -24 37 -21 23 -25 24 -23 8z"/>
<path d="M2710 4870 c0 -11 2 -20 4 -20 2 0 6 9 9 20 3 11 1 20 -4 20 -5 0 -9
-9 -9 -20z"/>
<path d="M2283 4824 c-25 -12 -36 -27 -44 -58 -6 -22 -18 -47 -27 -53 -14 -12
-13 -13 7 -13 13 0 36 -10 53 -21 17 -13 46 -22 70 -23 34 -1 45 4 70 34 23
28 28 41 23 65 -12 66 -90 100 -152 69z"/>
<path d="M2536 4813 c-6 -14 -5 -15 5 -6 7 7 10 15 7 18 -3 3 -9 -2 -12 -12z"/>
<path d="M2623 4720 c0 -25 2 -35 4 -22 2 12 2 32 0 45 -2 12 -4 2 -4 -23z"/>
<path d="M2460 4660 c-6 -11 -8 -20 -6 -20 3 0 10 9 16 20 6 11 8 20 6 20 -3
0 -10 -9 -16 -20z"/>
<path d="M2368 4623 c6 -2 18 -2 25 0 6 3 1 5 -13 5 -14 0 -19 -2 -12 -5z"/>
<path d="M2308 4613 c6 -2 18 -2 25 0 6 3 1 5 -13 5 -14 0 -19 -2 -12 -5z"/>
<path d="M2268 4603 c7 -3 16 -2 19 1 4 3 -2 6 -13 5 -11 0 -14 -3 -6 -6z"/>
<path d="M2145 4591 c-34 -5 -36 -7 -15 -11 14 -3 45 0 70 6 36 10 39 12 15
12 -16 -1 -48 -4 -70 -7z"/>
<path d="M2035 4570 c-27 -7 -25 -8 12 -6 24 1 46 5 50 9 8 9 -23 7 -62 -3z"/>
<path d="M2118 4563 c7 -3 16 -2 19 1 4 3 -2 6 -13 5 -11 0 -14 -3 -6 -6z"/>
<path d="M1871 4543 c-81 -14 -116 -25 -63 -20 17 2 32 0 32 -5 0 -4 5 -8 11
-8 5 0 7 5 4 10 -3 6 4 10 17 10 18 0 20 -2 8 -10 -22 -14 -4 -12 37 5 19 8
46 15 59 15 13 0 24 4 24 8 0 12 -43 11 -129 -5z m46 -9 c-3 -3 -12 -4 -19 -1
-8 3 -5 6 6 6 11 1 17 -2 13 -5z"/>
<path d="M1955 4520 c-19 -8 -19 -9 2 -9 12 -1 25 4 28 9 7 12 -2 12 -30 0z"/>
<path d="M1964 4376 c-32 -14 -56 -60 -48 -91 10 -39 51 -67 88 -59 17 3 36
10 42 15 6 5 13 7 15 5 2 -2 5 17 7 43 2 35 -2 52 -15 64 -28 25 -65 34 -89
23z"/>
<path d="M2120 4341 c0 -6 4 -13 10 -16 6 -3 7 1 4 9 -7 18 -14 21 -14 7z"/>
<path d="M8369 5376 c-2 -3 -36 -7 -74 -10 -89 -7 -263 -26 -293 -32 -28 -6
-19 -24 11 -23 21 0 21 1 2 10 -16 7 -13 8 14 6 19 -2 71 0 115 4 59 6 83 5
89 -4 6 -8 7 -6 3 6 -4 14 1 17 32 18 20 0 71 6 112 14 61 10 67 13 34 14 -22
1 -43 -1 -45 -3z"/>
<path d="M8468 5363 c7 -3 16 -2 19 1 4 3 -2 6 -13 5 -11 0 -14 -3 -6 -6z"/>
<path d="M8501 5354 c0 -11 3 -14 6 -6 3 7 2 16 -1 19 -3 4 -6 -2 -5 -13z"/>
<path d="M7933 5323 c9 -2 23 -2 30 0 6 3 -1 5 -18 5 -16 0 -22 -2 -12 -5z"/>
<path d="M7773 5309 c7 -4 39 -3 72 1 l60 8 -72 -2 c-39 0 -66 -4 -60 -7z"/>
<path d="M7998 5293 c7 -3 16 -2 19 1 4 3 -2 6 -13 5 -11 0 -14 -3 -6 -6z"/>
<path d="M8130 5289 c0 -5 5 -7 10 -4 6 3 10 8 10 11 0 2 -4 4 -10 4 -5 0 -10
-5 -10 -11z"/>
<path d="M7088 5283 c7 -3 16 -2 19 1 4 3 -2 6 -13 5 -11 0 -14 -3 -6 -6z"/>
<path d="M7291 5234 c0 -11 3 -14 6 -6 3 7 2 16 -1 19 -3 4 -6 -2 -5 -13z"/>
<path d="M7610 5240 c0 -5 10 -10 23 -10 18 0 19 2 7 10 -19 13 -30 13 -30 0z"/>
<path d="M7420 5230 c14 -4 36 -8 50 -8 22 0 22 1 -5 8 -16 4 -39 8 -50 8 -16
0 -15 -2 5 -8z"/>
<path d="M7326 5217 c3 -10 9 -15 12 -12 3 3 0 11 -7 18 -10 9 -11 8 -5 -6z"/>
<path d="M7798 5023 c7 -3 16 -2 19 1 4 3 -2 6 -13 5 -11 0 -14 -3 -6 -6z"/>
<path d="M7888 4963 c7 -3 16 -2 19 1 4 3 -2 6 -13 5 -11 0 -14 -3 -6 -6z"/>
<path d="M7308 4953 c12 -2 30 -2 40 0 9 3 -1 5 -23 4 -22 0 -30 -2 -17 -4z"/>
<path d="M7350 4940 l-25 -8 27 -1 c15 -1 30 4 33 9 7 11 0 11 -35 0z"/>
<path d="M7763 4934 c-17 -7 -35 -18 -38 -24 -6 -9 70 24 84 36 9 8 -15 2 -46
-12z"/>
<path d="M7407 4928 c7 -8 10 -18 6 -21 -3 -4 -1 -7 5 -7 21 0 21 16 -1 30
-19 12 -21 11 -10 -2z"/>
<path d="M7445 4891 c-3 -5 0 -13 6 -16 5 -4 8 -13 5 -21 -7 -19 -4 -18 18 8
15 17 15 20 3 15 -9 -3 -19 -2 -22 3 -3 4 1 11 7 13 9 4 10 6 1 6 -6 1 -14 -3
-18 -8z"/>
<path d="M7690 4880 c-9 -6 -10 -10 -3 -10 6 0 15 5 18 10 8 12 4 12 -15 0z"/>
<path d="M7421 4864 c0 -11 3 -14 6 -6 3 7 2 16 -1 19 -3 4 -6 -2 -5 -13z"/>
<path d="M7493 4836 c0 -14 5 -30 12 -36 8 -7 12 -5 12 5 0 8 -5 11 -10 8 -6
-4 -8 0 -5 9 4 8 3 21 -2 27 -5 9 -7 4 -7 -13z"/>
<path d="M7657 4831 c-9 -16 -17 -33 -17 -38 0 -4 9 7 21 26 11 18 18 35 17
37 -2 2 -12 -10 -21 -25z"/>
<path d="M7834 4830 c-31 -12 -54 -49 -54 -86 0 -74 112 -112 173 -59 38 33
37 82 -2 124 -30 32 -71 40 -117 21z"/>
<path d="M7456 4813 c-6 -14 -5 -15 5 -6 7 7 10 15 7 18 -3 3 -9 -2 -12 -12z"/>
<path d="M7987 4779 c4 -13 8 -18 11 -10 2 7 -1 18 -6 23 -8 8 -9 4 -5 -13z"/>
<path d="M7526 4767 c3 -10 9 -15 12 -12 3 3 0 11 -7 18 -10 9 -11 8 -5 -6z"/>
<path d="M7627 4773 c-4 -3 -7 -13 -7 -22 1 -13 3 -13 11 2 11 19 8 33 -4 20z"/>
<path d="M7611 4694 c0 -11 3 -14 6 -6 3 7 2 16 -1 19 -3 4 -6 -2 -5 -13z"/>
<path d="M8168 4683 c7 -3 16 -2 19 1 4 3 -2 6 -13 5 -11 0 -14 -3 -6 -6z"/>
<path d="M7601 4654 c0 -11 3 -14 6 -6 3 7 2 16 -1 19 -3 4 -6 -2 -5 -13z"/>
<path d="M7764 4633 c3 -4 32 -12 64 -19 31 -6 56 -16 55 -22 -2 -6 11 -7 38
-1 29 7 45 6 56 -2 8 -7 31 -13 51 -14 75 -4 232 -29 232 -38 0 -4 4 -5 10 -2
5 3 46 -1 91 -10 87 -16 133 -19 84 -5 -31 9 -488 87 -515 88 -8 1 -49 8 -90
16 -86 18 -86 18 -76 9z"/>
<path d="M7848 4593 c7 -3 16 -2 19 1 4 3 -2 6 -13 5 -11 0 -14 -3 -6 -6z"/>
<path d="M7823 4573 c9 -2 23 -2 30 0 6 3 -1 5 -18 5 -16 0 -22 -2 -12 -5z"/>
<path d="M7917 4569 c7 -7 15 -10 18 -7 3 3 -2 9 -12 12 -14 6 -15 5 -6 -5z"/>
<path d="M8373 4503 c9 -2 23 -2 30 0 6 3 -1 5 -18 5 -16 0 -22 -2 -12 -5z"/>
<path d="M8298 4493 c7 -3 16 -2 19 1 4 3 -2 6 -13 5 -11 0 -14 -3 -6 -6z"/>
<path d="M7900 4396 c0 -8 4 -17 9 -20 5 -4 7 3 4 14 -6 23 -13 26 -13 6z"/>
<path d="M8275 4390 c-3 -6 1 -7 9 -4 18 7 21 14 7 14 -6 0 -13 -4 -16 -10z"/>
<path d="M8188 4383 c8 -3 4 -11 -13 -25 -36 -28 -35 -88 2 -118 54 -42 127
-1 121 68 -3 41 -34 67 -88 75 -19 3 -29 3 -22 0z"/>
<path d="M8295 4360 c3 -5 8 -10 11 -10 2 0 4 5 4 10 0 6 -5 10 -11 10 -5 0
-7 -4 -4 -10z"/>
<path d="M7715 4270 c-3 -6 1 -7 9 -4 18 7 21 14 7 14 -6 0 -13 -4 -16 -10z"/>
<path d="M7992 4265 c-32 -14 -38 -40 -6 -28 8 3 12 8 9 11 -3 4 9 12 27 18
18 7 26 13 18 13 -8 0 -30 -6 -48 -14z"/>
<path d="M7930 4225 c-8 -9 -8 -15 -2 -15 12 0 26 19 19 26 -2 2 -10 -2 -17
-11z"/>
<path d="M5021 4538 c0 -24 4 -65 8 -93 7 -42 8 -35 7 42 -1 51 -4 93 -8 93
-5 0 -8 -19 -7 -42z"/>
<path d="M5051 4494 c0 -11 3 -14 6 -6 3 7 2 16 -1 19 -3 4 -6 -2 -5 -13z"/>
<path d="M5022 4190 c0 -19 2 -27 5 -17 2 9 2 25 0 35 -3 9 -5 1 -5 -18z"/>
<path d="M5030 3946 c0 -9 5 -16 10 -16 6 0 10 4 10 9 0 6 -4 13 -10 16 -5 3
-10 -1 -10 -9z"/>
<path d="M3032 4090 c-42 -26 -41 -34 1 -12 43 23 41 21 36 27 -3 2 -19 -5
-37 -15z"/>
<path d="M2900 4079 c0 -5 5 -7 10 -4 6 3 10 8 10 11 0 2 -4 4 -10 4 -5 0 -10
-5 -10 -11z"/>
<path d="M2969 4078 c-8 -26 -5 -36 8 -31 11 4 12 8 3 13 -9 6 -9 9 1 13 10 4
10 6 2 6 -7 1 -13 0 -14 -1z"/>
<path d="M2805 3970 c-3 -6 1 -7 9 -4 18 7 21 14 7 14 -6 0 -13 -4 -16 -10z"/>
<path d="M2180 3800 c-8 -5 -12 -12 -9 -15 4 -3 12 1 19 10 14 17 11 19 -10 5z"/>
<path d="M2196 3781 c-3 -5 1 -12 10 -15 22 -8 25 -4 9 11 -8 7 -16 9 -19 4z"/>
<path d="M2330 3730 c-8 -5 -10 -10 -5 -10 6 0 17 5 25 10 8 5 11 10 5 10 -5
0 -17 -5 -25 -10z"/>
<path d="M6990 4220 c-9 -6 -11 -10 -3 -10 7 0 11 -6 9 -12 -1 -7 -1 -10 1 -5
3 4 11 7 18 7 8 0 16 4 19 9 4 5 -4 7 -16 4 -19 -4 -20 -3 -8 6 19 13 1 14
-20 1z"/>
<path d="M7068 4198 c5 -5 16 -8 23 -6 8 3 3 7 -10 11 -17 4 -21 3 -13 -5z"/>
<path d="M7022 4181 c-11 -6 -10 -10 4 -15 9 -3 19 -4 22 -1 3 3 -1 5 -9 5
-11 0 -11 2 1 10 8 5 11 10 5 10 -5 0 -16 -4 -23 -9z"/>
<path d="M7090 4136 c0 -2 7 -7 16 -10 8 -3 12 -2 9 4 -6 10 -25 14 -25 6z"/>
<path d="M7790 3776 c0 -2 7 -7 16 -10 8 -3 12 -2 9 4 -6 10 -25 14 -25 6z"/>
<path d="M3745 3628 c-28 -29 -38 -43 -24 -30 14 12 29 19 34 15 4 -5 5 -3 1
4 -4 7 2 16 13 22 15 8 38 41 28 41 -2 0 -25 -24 -52 -52z"/>
<path d="M3795 3640 c-3 -5 1 -10 10 -10 9 0 13 5 10 10 -3 6 -8 10 -10 10 -2
0 -7 -4 -10 -10z"/>
<path d="M3655 3538 c-19 -21 -22 -29 -11 -25 10 4 20 7 22 7 3 0 2 5 -1 10
-3 6 -2 10 3 10 6 0 12 7 16 15 8 22 3 19 -29 -17z"/>
<path d="M3589 3474 l-24 -27 26 17 c16 10 34 14 45 9 18 -6 18 -6 2 10 -21
22 -20 22 -49 -9z"/>
<path d="M3371 3164 c0 -11 3 -14 6 -6 3 7 2 16 -1 19 -3 4 -6 -2 -5 -13z"/>
<path d="M3251 3134 c-18 -19 -31 -37 -29 -40 3 -2 13 5 22 15 10 11 25 17 34
14 15 -4 15 -3 2 6 -13 10 -13 12 0 20 8 6 12 12 9 15 -3 4 -20 -10 -38 -30z"/>
<path d="M3180 3061 c0 -6 4 -13 10 -16 6 -3 7 1 4 9 -7 18 -14 21 -14 7z"/>
<path d="M3146 3024 c-23 -23 -20 -30 4 -9 11 10 20 20 20 22 0 7 -9 2 -24
-13z"/>
<path d="M3099 2974 c-16 -20 14 -22 33 -3 16 17 15 18 -3 16 -11 -1 -25 -7
-30 -13z"/>
<path d="M2924 2789 c-18 -19 -22 -28 -11 -24 9 4 17 11 17 16 0 5 5 9 11 9 6
0 8 -7 5 -17 -4 -10 -3 -14 1 -9 6 6 13 56 8 56 -1 0 -14 -14 -31 -31z"/>
<path d="M2864 2728 l-19 -23 23 19 c21 18 27 26 19 26 -2 0 -12 -10 -23 -22z"/>
<path d="M2795 2659 c-14 -14 -16 -20 -5 -17 16 3 40 23 40 32 0 11 -15 5 -35
-15z"/>
<path d="M3340 2610 c0 -5 11 -10 24 -10 14 0 28 -5 31 -10 4 -6 14 -10 23 -8
10 1 23 -1 29 -5 9 -6 11 -3 7 7 -3 9 -12 16 -20 16 -8 0 -14 5 -14 10 0 6
-18 10 -40 10 -22 0 -40 -4 -40 -10z"/>
<path d="M6350 3660 c0 -5 5 -10 11 -10 5 0 7 5 4 10 -3 6 -8 10 -11 10 -2 0
-4 -4 -4 -10z"/>
<path d="M6375 3640 c-3 -5 -1 -10 4 -10 6 0 11 5 11 10 0 6 -2 10 -4 10 -3 0
-8 -4 -11 -10z"/>
<path d="M6464 3618 c-4 -6 -3 -8 3 -5 13 8 36 -17 25 -28 -4 -5 -1 -5 6 -1
11 6 10 12 -4 27 -20 22 -21 22 -30 7z"/>
<path d="M6520 3581 c0 -10 19 -25 25 -20 1 2 -3 10 -11 17 -8 7 -14 8 -14 3z"/>
<path d="M6573 3515 c0 -8 4 -12 9 -9 5 3 6 10 3 15 -9 13 -12 11 -12 -6z"/>
<path d="M6464 3490 c0 -13 4 -16 10 -10 7 7 7 13 0 20 -6 6 -10 3 -10 -10z"/>
<path d="M6655 3430 c-7 -12 19 -46 46 -60 11 -6 16 -5 16 5 0 8 -4 12 -9 9
-11 -7 -53 34 -44 43 4 4 12 1 17 -7 9 -13 10 -13 7 -1 -5 19 -24 25 -33 11z"/>
<path d="M6763 3324 c0 -14 2 -21 6 -17 3 4 9 10 12 13 4 3 1 10 -6 17 -10 9
-12 6 -12 -13z"/>
<path d="M6828 3267 c26 -28 29 -45 5 -26 -16 13 -17 12 -4 -3 7 -10 17 -15
23 -12 5 3 17 0 26 -7 9 -7 -1 6 -23 29 -21 23 -41 42 -44 42 -2 0 5 -10 17
-23z"/>
<path d="M6920 3173 c13 -18 26 -30 29 -28 3 3 -8 18 -23 33 l-29 27 23 -32z"/>
<path d="M6894 3137 c-11 -13 -26 -22 -34 -20 -13 4 -13 3 0 -6 10 -7 20 -3
39 15 13 13 22 27 19 30 -3 3 -14 -6 -24 -19z"/>
<path d="M6966 3130 c12 -18 12 -30 0 -50 -6 -9 -1 -7 12 4 27 24 31 2 5 -27
-13 -15 -14 -18 -3 -12 22 14 52 17 45 5 -4 -6 1 -7 11 -3 14 5 16 3 10 -13
-6 -15 -5 -16 5 -7 10 10 1 24 -41 65 -29 29 -49 46 -44 38z"/>
<path d="M7054 3008 c-4 -7 -3 -8 5 -4 6 4 20 2 29 -6 15 -12 16 -11 3 5 -16
20 -27 22 -37 5z"/>
<path d="M7127 2889 c7 -7 15 -10 18 -7 3 3 -2 9 -12 12 -14 6 -15 5 -6 -5z"/>
<path d="M7225 2820 c3 -5 8 -10 11 -10 2 0 4 5 4 10 0 6 -5 10 -11 10 -5 0
-7 -4 -4 -10z"/>
<path d="M7273 2802 c10 -10 14 -22 10 -26 -5 -4 -1 -6 7 -4 8 2 14 -2 13 -8
-1 -6 5 -11 13 -11 9 0 3 12 -18 34 -33 34 -53 47 -25 15z"/>
<path d="M6900 2321 c0 -6 4 -13 10 -16 6 -3 7 1 4 9 -7 18 -14 21 -14 7z"/>
<path d="M4746 3665 c4 -8 8 -15 10 -15 2 0 4 7 4 15 0 8 -4 15 -10 15 -5 0
-7 -7 -4 -15z"/>
<path d="M4310 3330 c0 -6 7 -13 15 -16 20 -8 19 -24 0 -24 -13 0 -14 -2 -3
-14 9 -10 14 -11 17 -3 2 7 8 15 13 18 4 3 -3 15 -17 27 -14 12 -25 17 -25 12z"/>
<path d="M4390 3280 c-11 -7 -12 -12 -4 -20 8 -8 13 -6 17 9 3 12 4 21 4 21
-1 0 -9 -5 -17 -10z"/>
<path d="M4502 3262 c-24 -48 -24 -58 -2 -25 12 18 20 37 18 43 -1 5 -9 -3
-16 -18z"/>
<path d="M4210 3219 c-7 -11 -9 -23 -6 -27 3 -3 6 1 6 9 0 11 2 11 10 -1 8
-12 10 -9 10 13 0 32 -5 34 -20 6z"/>
<path d="M4182 3159 c-7 -11 -9 -25 -5 -32 4 -7 10 0 15 18 9 36 6 40 -10 14z"/>
<path d="M4440 3109 c0 -5 5 -7 10 -4 6 3 10 8 10 11 0 2 -4 4 -10 4 -5 0 -10
-5 -10 -11z"/>
<path d="M4126 3053 c-6 -14 -5 -15 5 -6 7 7 10 15 7 18 -3 3 -9 -2 -12 -12z"/>
<path d="M4100 3001 c-7 -13 -7 -27 0 -43 l11 -23 -5 24 c-3 13 -1 33 5 43 5
10 7 18 5 18 -3 0 -10 -9 -16 -19z"/>
<path d="M4580 3010 c0 -5 5 -10 11 -10 5 0 7 5 4 10 -3 6 -8 10 -11 10 -2 0
-4 -4 -4 -10z"/>
<path d="M4581 2924 c0 -11 3 -14 6 -6 3 7 2 16 -1 19 -3 4 -6 -2 -5 -13z"/>
<path d="M4370 2904 c0 -8 5 -12 10 -9 6 3 10 10 10 16 0 5 -4 9 -10 9 -5 0
-10 -7 -10 -16z"/>
<path d="M4302 2735 c-7 -15 -11 -30 -8 -32 7 -7 28 36 24 49 -2 6 -9 -2 -16
-17z"/>
<path d="M3791 2384 c0 -11 3 -14 6 -6 3 7 2 16 -1 19 -3 4 -6 -2 -5 -13z"/>
<path d="M3722 2250 c-7 -11 -12 -23 -12 -27 0 -5 5 0 11 11 9 15 13 16 20 5
5 -8 9 -9 9 -4 0 6 -4 15 -8 22 -6 9 -11 7 -20 -7z"/>
<path d="M3731 2194 c0 -11 3 -14 6 -6 3 7 2 16 -1 19 -3 4 -6 -2 -5 -13z"/>
<path d="M5721 3214 c0 -11 3 -14 6 -6 3 7 2 16 -1 19 -3 4 -6 -2 -5 -13z"/>
<path d="M5750 3137 c0 -10 -4 -16 -9 -13 -4 3 -6 -7 -3 -22 l6 -27 6 25 6 25
8 -23 c4 -13 10 -22 12 -19 2 2 -2 19 -10 38 -9 20 -15 27 -16 16z"/>
<path d="M6051 3114 c0 -11 3 -14 6 -6 3 7 2 16 -1 19 -3 4 -6 -2 -5 -13z"/>
<path d="M5807 2976 c-3 -8 -2 -18 3 -21 13 -8 20 9 11 24 -6 10 -10 9 -14 -3z"/>
<path d="M5845 2879 c-4 -6 -5 -12 -2 -15 2 -3 7 2 10 11 7 17 1 20 -8 4z"/>
<path d="M6178 2203 c6 -2 18 -2 25 0 6 3 1 5 -13 5 -14 0 -19 -2 -12 -5z"/>
<path d="M5162 3070 l2 -195 6 180 c3 99 2 187 -2 195 -4 8 -7 -73 -6 -180z"/>
<path d="M5035 3201 c-4 -13 -4 -25 -1 -28 3 -4 7 2 7 13 1 10 5 3 9 -16 7
-35 7 -35 9 -5 1 42 -14 65 -24 36z"/>
<path d="M5022 2680 c0 -14 2 -19 5 -12 2 6 2 18 0 25 -3 6 -5 1 -5 -13z"/>
<path d="M5041 2674 c0 -11 3 -14 6 -6 3 7 2 16 -1 19 -3 4 -6 -2 -5 -13z"/>
<path d="M4860 2190 c-9 -6 -10 -10 -3 -10 6 0 15 5 18 10 8 12 4 12 -15 0z"/>
<path d="M5034 2014 c3 -11 7 -38 8 -61 2 -24 7 -38 12 -33 11 11 -2 97 -16
106 -6 4 -8 -1 -4 -12z"/>
<path d="M5345 1631 c-3 -5 -1 -12 4 -15 5 -3 11 1 15 9 6 16 -9 21 -19 6z"/>
<path d="M5260 1580 c-12 -7 -10 -9 7 -7 12 0 19 5 17 9 -6 10 -6 10 -24 -2z"/>
<path d="M5124 1516 c-92 -44 -154 -83 -154 -98 0 -6 10 -2 23 10 26 25 133
82 153 82 8 0 14 4 14 8 0 5 12 13 28 19 15 6 22 11 17 12 -6 1 -42 -14 -81
-33z"/>
<path d="M4935 1400 c-16 -17 -16 -20 -3 -15 9 4 19 13 22 21 7 19 2 18 -19
-6z"/>
</g>
</svg>
